<?xml version="1.0" standalone="no"?>
<!DOCTYPE svg PUBLIC "-//W3C//DTD SVG 1.1//EN" "http://www.w3.org/Graphics/SVG/1.1/DTD/svg11.dtd" >
<svg xmlns="http://www.w3.org/2000/svg" xmlns:xlink="http://www.w3.org/1999/xlink" version="1.1">
<metadata></metadata>
<defs>
<font id="oculus_sanssemibold_italic" horiz-adv-x="595" >
<font-face units-per-em="2048" ascent="1638" descent="-410" />
<missing-glyph horiz-adv-x="561" />
<glyph horiz-adv-x="0" />
<glyph horiz-adv-x="682" />
<glyph unicode="&#xd;" horiz-adv-x="794" />
<glyph unicode=" "  horiz-adv-x="561" />
<glyph unicode="&#x09;" horiz-adv-x="561" />
<glyph unicode="&#xa0;" horiz-adv-x="561" />
<glyph unicode="!" horiz-adv-x="866" d="M306 156q13 62 59 102.5t110 40.5q80 0 120 -52.5t24 -128.5q-13 -61 -59.5 -101.5t-110.5 -40.5q-80 0 -119.5 52t-23.5 128zM411 442l212 1043h252l-231 -1043h-233z" />
<glyph unicode="&#x22;" horiz-adv-x="1026" d="M393 914l107 571h229l-135 -571h-201zM822 914l107 571h229l-136 -571h-200z" />
<glyph unicode="#" horiz-adv-x="1269" d="M133 434l32 148h257l122 319h-234l32 148h261l169 436h159l-169 -436h300l168 436h160l-169 -436h231l-31 -148h-257l-124 -319h233l-31 -148h-260l-168 -434h-159l167 434h-298l-169 -434h-159l167 434h-230zM581 582h300l122 319h-298z" />
<glyph unicode="$" horiz-adv-x="1241" d="M132 146l43 220q68 -28 189 -51t228 -28l100 375q-35 8 -63.5 15t-62.5 17t-60.5 21.5t-55.5 26t-50 31.5t-41 38t-32 46.5t-19.5 55t-7 65.5t9.5 76q18 87 68.5 153.5t124 108t154.5 65t175 33.5l36 122h158l-37 -121q98 -4 202.5 -24.5t178.5 -52.5l-38 -214 q-63 27 -167.5 47t-200.5 24l-95 -346q35 -8 62.5 -15.5t62 -18t61 -22t55.5 -26.5t50.5 -32.5t42 -39t33 -47.5t20.5 -55.5t7.5 -65.5t-9.5 -76q-15 -72 -51 -130.5t-85 -100t-113.5 -72.5t-133 -49t-146.5 -27l-37 -123h-159l37 119q-111 2 -229 22.5t-205 55.5zM554 1024 q-12 -55 30.5 -86.5t134.5 -52.5l86 304q-91 -6 -163 -49t-88 -116zM751 295q95 10 168.5 57t89.5 123q13 59 -30 93.5t-136 58.5z" />
<glyph unicode="%" horiz-adv-x="1937" d="M345 1143q33 155 164.5 264t286.5 109q171 0 267 -121t60 -291q-33 -156 -165 -265.5t-288 -109.5q-170 0 -265.5 121.5t-59.5 292.5zM372 22l1391 1530l119 -89l-1391 -1530zM499 1104q-19 -89 28.5 -150t135.5 -61q105 0 194 73t111 177q19 89 -28.5 149.5t-136.5 60.5 q-104 0 -193 -73t-111 -176zM1130 381q33 157 164.5 266t286.5 109q113 0 196.5 -55.5t119 -150.5t11.5 -208q-33 -155 -165 -264t-288 -109q-170 0 -265.5 121t-59.5 291zM1284 342q-19 -89 28.5 -150t135.5 -61q105 0 193.5 73.5t110.5 176.5q19 90 -28 150.5t-136 60.5 q-104 0 -193 -73t-111 -177z" />
<glyph unicode="&#x26;" horiz-adv-x="1544" d="M150.5 191.5q-16.5 73.5 3.5 168.5q56 262 429 447q-117 224 -84 378q31 144 154 239t295 95q176 0 268.5 -99t58.5 -259q-25 -118 -124.5 -212.5t-267.5 -187.5q88 -125 222 -279q151 138 334 354l200 -9l-20 -116q-214 -248 -369 -390q33 -36 223 -236l-9 -85l-250 6 q-141 152 -150 162q-281 -203 -560 -203q-94 0 -167.5 26t-121.5 76.5t-64.5 124zM413 349q-15 -71 20.5 -113.5t118.5 -42.5q168 0 368 140q-145 171 -240 313q-103 -58 -176 -134t-91 -163zM723 1149q-18 -84 61 -231q113 64 181.5 127.5t85.5 140.5q12 58 -15 96.5 t-93 38.5q-85 0 -145.5 -53t-74.5 -119z" />
<glyph unicode="'" horiz-adv-x="598" d="M393 914l107 571h229l-135 -571h-201z" />
<glyph unicode="(" horiz-adv-x="614" d="M249 689q114 535 551 997l121 -120q-362 -433 -465 -916q-106 -501 73 -893l-145 -88q-251 473 -135 1020z" />
<glyph unicode=")" horiz-adv-x="614" d="M-23 -226q358 413 465 915q102 477 -73 893l142 89q253 -479 138 -1021q-114 -537 -549 -997z" />
<glyph unicode="*" horiz-adv-x="1058" d="M302 1093l82 156l195 -68l123 -62l14 147l45 219h167l-45 -219l-53 -147l145 62l223 68l19 -158l-218 -67l-156 -29l73 -106l98 -177l-149 -98l-90 175l-44 129l-97 -126l-167 -177l-123 97l160 177l127 107l-133 29z" />
<glyph unicode="+" horiz-adv-x="1376" d="M287 580l38 179h447l94 445h178l-95 -445h445l-38 -179h-445l-94 -445h-178l95 445h-447z" />
<glyph unicode="," horiz-adv-x="598" d="M14 -269q164 300 263 569l257 -19q-90 -230 -325 -583z" />
<glyph unicode="-" horiz-adv-x="776" d="M180 411l46 218h592l-46 -218h-592z" />
<glyph unicode="." d="M169 155q13 63 60 104t111 41q80 0 120 -53.5t24 -130.5q-13 -61 -60.5 -102.5t-111.5 -41.5q-80 0 -119.5 53.5t-23.5 129.5z" />
<glyph unicode="/" horiz-adv-x="866" d="M-35 -102l999 1638h222l-1001 -1638h-220z" />
<glyph unicode="0" horiz-adv-x="1398" d="M234 505q4 118 33 256q28 133 71 245t107 208t143.5 162.5t184.5 104.5t228 38q129 0 223.5 -40t150.5 -111t82 -171.5t22 -218.5t-33 -256q-36 -167 -96 -301t-148.5 -238t-213 -161t-276.5 -57q-129 0 -224 40t-150.5 110.5t-81.5 171t-22 218.5zM488 511.5 q-3 -93.5 17.5 -166.5t74.5 -112.5t139 -39.5q93 0 171.5 43t137 121t100.5 179t68 225q25 118 28 211.5t-17 167t-73.5 113.5t-138.5 40q-93 0 -172 -43.5t-137.5 -122t-101 -180t-68.5 -225.5q-25 -117 -28 -210.5z" />
<glyph unicode="1" horiz-adv-x="966" d="M341 1167l480 318h224l-316 -1485h-251l254 1194l-291 -196z" />
<glyph unicode="2" horiz-adv-x="1234" d="M93 0l41 236q269 181 453 320t288 240.5t151.5 172.5t61.5 135q10 49 -6 85.5t-53 56t-82.5 28.5t-101.5 9q-110 0 -241 -26.5t-224 -60.5l19 243q245 80 479 80q73 0 137.5 -9.5t125 -30.5t104 -54.5t74 -80.5t37 -109.5t-8.5 -142.5q-26 -122 -117 -244t-282 -276 t-499 -347l715 5l-59 -230h-1012z" />
<glyph unicode="3" horiz-adv-x="1265" d="M137 51l44 237q70 -34 203 -60t232 -26q150 0 251.5 65.5t126.5 180.5q11 52 -1.5 90.5t-40 61t-71 36.5t-86 18.5t-94.5 4.5h-287l37 218h298q70 0 139 23t128 78t75 132q19 89 -45.5 131t-178.5 42q-107 0 -232.5 -26.5t-219.5 -60.5l20 243q243 80 468 80 q81 0 153.5 -13.5t136.5 -42t105 -74t59.5 -108.5t-0.5 -146q-26 -124 -121.5 -219.5t-238.5 -147.5l-23 -3q64 -15 118 -47.5t94 -83.5t54 -118t-2 -151q-27 -126 -125.5 -218.5t-233.5 -137t-290 -44.5q-116 0 -239 23.5t-213 62.5z" />
<glyph unicode="4" horiz-adv-x="1290" d="M131 309l42 218l902 958h255l-203 -958h221l-55 -218h-213l-65 -309h-250l65 309h-699zM448 527h429l124 586z" />
<glyph unicode="5" horiz-adv-x="1275" d="M149 51l45 238q70 -38 175 -62.5t198 -24.5q103 0 194 29.5t161.5 97.5t91.5 165q15 70 -6.5 120.5t-70.5 77.5t-108 39t-131 12q-176 0 -350 -55l232 797h843l-62 -231h-611l-117 -325q81 11 172 11q270 0 390.5 -126.5t72.5 -353.5q-27 -128 -97.5 -225.5t-168.5 -155 t-210 -86t-234 -28.5q-206 0 -409 86z" />
<glyph unicode="6" horiz-adv-x="1308" d="M214 509q24 112 102.5 253.5t183.5 275t219.5 254t221.5 209.5l312 -23q-142 -111 -295 -259.5t-276 -298.5q113 77 249 77q141 0 242.5 -68t142 -185.5t10.5 -258.5q-50 -232 -233.5 -376t-417.5 -144q-166 0 -283 73.5t-163.5 197.5t-14.5 273zM458 472 q-25 -119 37.5 -199t186.5 -80q140 0 252 92t141 226q25 118 -36.5 199t-186.5 81q-140 0 -253 -93t-141 -226z" />
<glyph unicode="7" horiz-adv-x="1185" d="M234 0l872 1254h-765l59 231h1036l-41 -210l-873 -1275h-288z" />
<glyph unicode="8" horiz-adv-x="1318" d="M197 429q33 153 149.5 257.5t263.5 130.5l24 5q-119 30 -181.5 123.5t-34.5 223.5q24 114 108.5 195t196.5 118t239 37q101 0 186.5 -25.5t147 -72.5t88 -122.5t6.5 -168.5q-25 -118 -116 -200.5t-219 -112.5l-23 -4q139 -26 219 -141.5t45 -280.5q-39 -184 -211 -305 t-411 -121q-169 0 -288.5 61.5t-168 167t-20.5 235.5zM457 420q-22 -106 42.5 -166.5t180.5 -60.5q130 0 237 72.5t132 191.5q24 113 -42 183.5t-175 70.5q-127 0 -237.5 -82t-137.5 -209zM647 1085q-12 -54 15 -92.5t72.5 -54.5t99.5 -16q101 0 194 54.5t113 147.5 q17 82 -40 125.5t-145 43.5q-68 0 -131.5 -22.5t-113.5 -71t-64 -114.5z" />
<glyph unicode="9" horiz-adv-x="1314" d="M305 1001q50 232 233.5 375t417.5 143q166 0 283 -73.5t163 -197.5t14 -273q-24 -112 -102.5 -253.5t-184 -275.5t-219.5 -253.5t-220 -208.5l-312 22q139 109 291 258t277 299q-110 -75 -246 -75q-142 0 -243.5 68.5t-141.5 185.5t-10 259zM556 973q-25 -118 36 -198.5 t186 -80.5q140 0 253.5 93t141.5 227q25 118 -38 198.5t-185 80.5q-140 0 -252.5 -93t-141.5 -227z" />
<glyph unicode=":" d="M169 155q13 63 60 104t111 41q80 0 120 -53.5t24 -130.5q-13 -61 -60.5 -102.5t-111.5 -41.5q-80 0 -119.5 53.5t-23.5 129.5zM318 858q13 62 60.5 103.5t111.5 41.5q80 0 119.5 -53.5t23.5 -129.5q-13 -62 -60 -103t-111 -41q-80 0 -120 53t-24 129z" />
<glyph unicode=";" horiz-adv-x="598" d="M14 -269q164 300 263 569l257 -19q-90 -230 -325 -583zM333 858q13 62 60 103.5t111 41.5q79 0 119 -53.5t24 -129.5q-13 -62 -59.5 -103t-110.5 -41q-80 0 -120 53t-24 129z" />
<glyph unicode="&#x3c;" horiz-adv-x="1347" d="M280 537l38 197l1130 520l-41 -211l-928 -408l751 -409l-41 -210z" />
<glyph unicode="=" horiz-adv-x="1396" d="M242 366l37 177h1069l-37 -177h-1069zM333 795l37 176h1069l-37 -176h-1069z" />
<glyph unicode="&#x3e;" horiz-adv-x="1347" d="M169 16l41 210l928 409l-751 408l42 211l909 -520l-38 -197z" />
<glyph unicode="?" horiz-adv-x="1206" d="M380 155q13 62 60.5 103.5t111.5 41.5q79 0 118.5 -53.5t23.5 -130.5q-13 -61 -60 -102.5t-110 -41.5q-80 0 -120 54t-24 129zM394 1195l18 249q193 75 458 75q117 0 208.5 -24.5t156.5 -73.5t90 -131.5t2 -190.5q-16 -76 -55 -138.5t-89 -105t-107.5 -79.5t-115 -71 t-106.5 -71t-86 -88t-51 -113l-229 19q19 88 58 158.5t87.5 116.5t103.5 84t109 69.5t99.5 63.5t79 75.5t44.5 96.5q19 89 -44 128t-183 39q-111 0 -232 -26t-216 -62z" />
<glyph unicode="@" horiz-adv-x="1722" d="M170 142.5q-11 113.5 14 243.5q33 156 121.5 301t214 256t291 177.5t341.5 66.5q112 0 207.5 -26.5t162.5 -73.5t118 -110.5t74 -137.5t30 -154.5t-13 -162.5q-30 -140 -120.5 -264.5t-202.5 -195t-211 -70.5q-83 0 -119 51t-16 136q-70 -82 -156.5 -134.5t-169.5 -52.5 q-128 0 -187.5 101t-28.5 250q18 86 67 174.5t116.5 161.5t155 119t174.5 46q83 0 137 -46t67 -117l10 9l46 128h136l-209 -566q-37 -99 -33 -118q3 -15 26 -15q105 0 229 125.5t162 300.5q16 61 11.5 123t-19.5 119.5t-52 107.5t-86.5 87.5t-123.5 59t-162 21.5 q-196 0 -378.5 -94t-310.5 -257.5t-170 -360.5q-36 -169 10 -304.5t167.5 -214t297.5 -78.5q231 0 430 123l82 -105q-237 -141 -497 -141q-134 0 -247 37t-192.5 104.5t-131 162t-62.5 208zM672 314q-16 -74 4.5 -125t84.5 -51q69 0 137.5 37.5t119.5 95t87.5 123.5 t49.5 127q8 47 4.5 85.5t-32 63t-78.5 24.5q-60 0 -123 -34.5t-113.5 -89t-88.5 -122.5t-52 -134z" />
<glyph unicode="A" horiz-adv-x="1513" d="M13 0l943 1485h227l311 -1485h-283l-54 322h-655l-193 -322h-296zM636 546h483l-106 630z" />
<glyph unicode="B" horiz-adv-x="1462" d="M170 0l316 1485h646q84 0 153.5 -13t127.5 -41t92.5 -72.5t48.5 -106.5q6 -26 5 -56q0 -41 -11 -89q-28 -131 -115.5 -216.5t-215.5 -118.5l-22 -3q151 -17 227 -117q53 -69 53 -166q0 -42 -10 -90q-27 -128 -113.5 -219.5t-203.5 -134t-253 -42.5h-725zM473 222h450 q115 0 194 66t100 166q4 21 4 40q1 59 -41 104q-56 59 -180 59h-435zM611 872h391q105 0 184 67t98 156q5 23 5 43q0 48 -28 80q-40 46 -158 45h-409z" />
<glyph unicode="C" horiz-adv-x="1429" d="M232 415q-11 60 -11 127q0 101 25 219q40 187 127.5 332t212 238t279.5 140.5t336 47.5q244 0 458 -81l-37 -235q-97 38 -214 58.5t-218 20.5q-270 0 -450.5 -141.5t-239.5 -418.5q-19 -88 -19 -162q0 -144 73 -228q110 -128 366 -129q243 0 487 85l-25 -247 q-234 -76 -470 -76q-188 0 -330.5 50.5t-232 150.5t-117.5 249z" />
<glyph unicode="D" horiz-adv-x="1591" d="M170 0l316 1485h532q390 0 560 -201q117 -138 117 -352q0 -97 -24 -210q-74 -348 -315.5 -535t-631.5 -187h-554zM473 222h277q281 0 445.5 133t222.5 406q19 91 19 166q1 137 -65 215q-102 121 -380 121h-298z" />
<glyph unicode="E" horiz-adv-x="1325" d="M170 0l316 1485h1017l-49 -231h-762l-84 -397h705l-53 -231h-701l-84 -396h789l-49 -230h-1045z" />
<glyph unicode="F" horiz-adv-x="1239" d="M170 0l316 1485h1000l-49 -231h-745l-84 -397h689l-53 -231h-685l-133 -626h-256z" />
<glyph unicode="G" horiz-adv-x="1597" d="M238 420q-14 66 -14 140q0 94 22 201q41 191 133.5 338t223 237.5t289 136.5t340.5 46q247 0 473 -81l-35 -235q-98 37 -221.5 58t-234.5 21q-273 0 -464 -141.5t-250 -418.5q-17 -78 -17 -145q0 -148 81 -240q117 -134 359 -134q149 0 334 52l91 381h-336l39 231h602 l-157 -786q-150 -58 -308 -87t-274 -29q-180 0 -321.5 52.5t-232.5 153.5t-122 249z" />
<glyph unicode="H" horiz-adv-x="1624" d="M170 0l316 1485h255l-133 -628h772l134 628h256l-315 -1485h-257l133 626h-772l-133 -626h-256z" />
<glyph unicode="I" d="M170 0l316 1485h255l-315 -1485h-256z" />
<glyph unicode="J" horiz-adv-x="1069" d="M48 36l38 233q64 -27 160 -47t169 -20q147 0 225 74.5t111 228.5l209 980h254l-217 -1022q-50 -234 -182.5 -366t-363.5 -132q-221 0 -403 71z" />
<glyph unicode="K" horiz-adv-x="1462" d="M177 0l316 1485h256l-147 -691h36l745 691h327l-841 -744l572 -741h-318l-504 686h-40l-146 -686h-256z" />
<glyph unicode="L" horiz-adv-x="1130" d="M170 0l316 1485h255l-266 -1255h694l-49 -230h-950z" />
<glyph unicode="M" horiz-adv-x="1949" d="M166 0l315 1485h291l309 -960l726 960h296l-315 -1485h-257l225 1059l-669 -880h-136l-296 880h-8l-225 -1059h-256z" />
<glyph unicode="N" horiz-adv-x="1671" d="M170 0l316 1485h279l555 -1092h8l229 1092h260l-316 -1485h-280l-555 1092h-8l-230 -1092h-258z" />
<glyph unicode="O" horiz-adv-x="1748" d="M246 761q46 214 181 387.5t332.5 272t417.5 98.5q230 0 393.5 -104.5t229.5 -286.5q38 -106 38 -227q0 -86 -20 -179q-34 -160 -122 -300t-210 -240.5t-277.5 -158.5t-320.5 -58q-230 0 -394 104.5t-230 286.5q-38 106 -38 226q0 86 20 179zM500 722q-14 -65 -14 -125 q0 -71 20 -133q36 -116 137.5 -185.5t254.5 -69.5q122 0 235.5 43.5t199.5 118.5t147 175.5t85 214.5q14 65 14 124q0 71 -20 135q-36 116 -138 186t-254 70q-163 0 -305.5 -75.5t-235.5 -201t-126 -277.5z" />
<glyph unicode="P" horiz-adv-x="1335" d="M170 0l316 1485h614q146 0 244 -65.5t134 -179.5q19 -61 18 -132q0 -61 -14 -129q-44 -208 -196.5 -337t-371.5 -129h-379l-109 -513h-256zM582 734h327q122 0 208.5 80t112.5 203q8 38 8 71q0 64 -30 108q-46 68 -166 67h-348z" />
<glyph unicode="Q" horiz-adv-x="1746" d="M246 761q46 214 181 387.5t332.5 272t417.5 98.5q138 0 255.5 -39.5t200 -111t136.5 -171t65 -219.5q3 -35 3 -72q0 -88 -18 -184q-66 -308 -339 -492h298l-52 -230h-837q-242 3 -404.5 99.5t-224.5 268.5q-34 97 -34 210q0 87 20 183zM500 722q-13 -63 -13 -120 q0 -72 21 -135q38 -113 140.5 -179.5t252.5 -67.5h3q251 0 430 152q181 154 231 389q14 65 14 124q0 72 -20 135q-36 116 -138 186t-254 70q-163 0 -305.5 -75.5t-235.5 -201t-126 -277.5z" />
<glyph unicode="R" horiz-adv-x="1390" d="M170 0l316 1485h652q221 -1 322 -139q69 -95 69 -228q0 -62 -15 -133q-38 -180 -153.5 -296.5t-298.5 -150.5l270 -538h-316l-244 526h-235l-111 -526h-256zM585 747h357q119 0 206.5 78t113.5 199q8 36 8 66q0 64 -32 108q-48 65 -165 65h-379z" />
<glyph unicode="S" horiz-adv-x="1271" d="M127 80l88 230q87 -50 196.5 -78.5t216.5 -28.5q94 0 175 23.5t141.5 75.5t75.5 125q4 19 4 36q0 26 -9 47q-15 36 -48.5 58.5t-80.5 42t-101.5 34t-111 33t-109.5 40t-97 55t-73.5 77t-37.5 107.5q-3 21 -3 45q0 46 11 100q19 90 65 162.5t107.5 119.5t138.5 78 t154.5 44t159.5 13q258 0 444 -122l-80 -225q-176 110 -375 110q-85 0 -158.5 -21t-129 -68.5t-69.5 -115.5q-4 -17 -3 -33q0 -34 17 -62q26 -40 77.5 -61.5t118.5 -43.5t137.5 -40.5t135.5 -51.5t111.5 -78t64.5 -119q9 -35 9 -75q0 -46 -11 -99q-21 -98 -71 -176.5 t-115.5 -128.5t-148 -83t-164.5 -47t-169 -14q-137 0 -262.5 31.5t-220.5 83.5z" />
<glyph unicode="T" horiz-adv-x="1271" d="M290 1254l50 231h1224l-50 -231h-483l-266 -1254h-257l267 1254h-485z" />
<glyph unicode="U" horiz-adv-x="1613" d="M300 611l186 874h257l-185 -871q-17 -78 -16 -141q0 -264 289 -264q67 0 127.5 13.5t118.5 45.5t104.5 80t83 121t56.5 165l181 851h257l-189 -894q-65 -308 -259 -467t-490 -159q-311 0 -449 168q-93 114 -93 292q0 86 21 186z" />
<glyph unicode="V" horiz-adv-x="1497" d="M357 1485h283l173 -1150l668 1150h296l-912 -1485h-226z" />
<glyph unicode="W" horiz-adv-x="2138" d="M356 1485h285l50 -1092h2l573 1092h232l107 -1092h2l516 1092h295l-769 -1485h-229l-114 1092h-1l-582 -1092h-228z" />
<glyph unicode="X" horiz-adv-x="1423" d="M12 0l690 757l-339 728h315l220 -575l471 575h329l-656 -727l361 -758h-303l-252 604l-518 -604h-318z" />
<glyph unicode="Y" horiz-adv-x="1425" d="M357 1485h282l222 -756l550 756h297l-759 -998l-108 -487h-257l107 487z" />
<glyph unicode="Z" horiz-adv-x="1343" d="M82 0l41 211l1054 1052h-812l49 222h1130l-39 -203l-1046 -1052h852l-53 -230h-1176z" />
<glyph unicode="[" horiz-adv-x="686" d="M134 -335l427 2010h421l-32 -152h-210l-363 -1707h210l-32 -151h-421z" />
<glyph unicode="\" horiz-adv-x="860" d="M334 1536h207l303 -1638h-206z" />
<glyph unicode="]" horiz-adv-x="686" d="M-10 -335l33 151h209l362 1707h-208l32 152h420l-427 -2010h-421z" />
<glyph unicode="^" horiz-adv-x="1355" d="M291 614l605 922h208l215 -922h-209l-139 737l-459 -737h-221z" />
<glyph unicode="_" horiz-adv-x="1024" d="M-60 -283l25 119h1024l-25 -119h-1024z" />
<glyph unicode="`" horiz-adv-x="524" d="M274 1423l233 27l155 -334h-184z" />
<glyph unicode="a" horiz-adv-x="1165" d="M150 164q-7 31 -8 66q0 39 9 84q61 286 440 286q96 0 302 -15l21 52q6 30 6 54q0 53 -29 81q-43 42 -151 41q-87 0 -203 -22.5t-194 -50.5l15 207q77 26 203 45t219 19q226 1 321 -111q68 -80 68 -194q0 -44 -10 -94l-130 -612h-240l24 135q-143 -162 -369 -162 q-72 0 -132.5 21t-103 63.5t-58.5 106.5zM391 272q-4 -19 -4 -35q-1 -41 25 -67q36 -36 110 -35q71 0 140.5 30t133.5 101t98 173q-36 -2 -63 -2q-7 1 -13 1q-30 0 -75 1t-58 1q-258 0 -294 -168z" />
<glyph unicode="b" horiz-adv-x="1284" d="M123 0l324 1526h248l-115 -543l-31 -142q167 170 369 170q150 0 248 -71t132 -193q17 -61 17 -131q0 -68 -16 -144q-47 -220 -199 -360t-363 -140q-223 0 -324 189l-15 -8l-32 -153h-243zM465 472q-8 -39 -8 -74q0 -75 38 -131q56 -81 181 -81q140 0 243 90.5t133 234.5 q9 44 9 81q1 76 -35 128q-54 78 -178 78q-138 0 -245.5 -93t-137.5 -233z" />
<glyph unicode="c" horiz-adv-x="1062" d="M193 511q52 242 224.5 371t426.5 129q186 0 325 -64l-38 -212q-62 29 -145.5 46t-142.5 17q-160 0 -264.5 -85t-137.5 -241q-11 -49 -10 -90q0 -196 241 -196q70 0 164.5 18.5t171.5 48.5l-15 -225q-67 -26 -158.5 -41t-169.5 -15q-269 0 -398 142q-90 99 -90 254 q0 66 16 143z" />
<glyph unicode="d" horiz-adv-x="1284" d="M193 511q46 217 203 358.5t358 141.5q222 0 324 -188l14 8l30 152l115 543h248l-324 -1526h-243l29 144q-166 -172 -371 -172q-145 0 -244 71t-135 193q-19 65 -19 138q0 65 15 137zM441 472q-9 -42 -9 -79q0 -75 38 -128q56 -79 175 -79q140 0 247 93.5t136 231.5 q8 39 8 74q0 77 -40 133q-58 80 -179 80q-135 0 -240.5 -92t-135.5 -234z" />
<glyph unicode="e" horiz-adv-x="1132" d="M177 304q-3 26 -3 55q0 67 18 148q52 245 210 374.5t380 129.5q226 1 326 -137q64 -89 65 -228q0 -75 -19 -164l-13 -65l-713 -9q-4 -27 -4 -51q0 -82 51 -122q66 -51 208 -51q186 0 357 63l-14 -224q-170 -51 -358 -51q-106 0 -190 19t-150 59t-103 103t-48 151z M458 575l475 20q8 41 8 74q0 152 -169 152q-109 0 -196.5 -65.5t-117.5 -180.5z" />
<glyph unicode="f" horiz-adv-x="722" d="M196 780l43 203h194l32 150q42 200 126.5 290t251.5 90q89 0 199 -20l-23 -206q-59 13 -111 13q-84 0 -131.5 -47.5t-68.5 -148.5l-26 -121h228l-45 -203h-226l-166 -780h-249l166 780h-194z" />
<glyph unicode="g" horiz-adv-x="1282" d="M85 -469l35 207q70 -20 176.5 -35.5t189.5 -15.5q79 0 146 16t125.5 50t99.5 93t59 140l33 157q-167 -171 -369 -171q-143 0 -241.5 70.5t-134.5 193.5q-19 65 -19 138q0 65 15 137q46 217 202 358.5t359 141.5q226 0 326 -188l14 8l32 152h243l-213 -1006 q-24 -113 -73.5 -201t-112 -143t-143.5 -90t-162.5 -49t-174.5 -14q-221 0 -412 51zM448 472q-9 -42 -9 -79q0 -75 37 -128q56 -79 176 -79q137 0 245 92.5t137 232.5q8 39 8 74q0 75 -38 131q-56 82 -180 82q-136 0 -241 -91.5t-135 -234.5z" />
<glyph unicode="h" horiz-adv-x="1200" d="M123 0l324 1526h249l-116 -543l-37 -159q80 91 179.5 139t196.5 48q301 0 302 -275q0 -66 -18 -149l-125 -587h-250l122 574q11 54 11 97q0 10 -1 19q-3 50 -36.5 79t-97.5 29q-125 0 -224.5 -91.5t-131.5 -242.5l-99 -464h-248z" />
<glyph unicode="i" horiz-adv-x="520" d="M136 0l209 983h249l-208 -983h-250zM395 1340q13 61 56 97t101 36q74 0 112 -48q26 -34 27 -81q0 -20 -5 -43q-13 -61 -55.5 -97t-101.5 -36q-77 0 -113 50q-25 35 -25 81q0 20 4 41z" />
<glyph unicode="j" horiz-adv-x="524" d="M-206 -498l31 206q48 -12 104 -12q79 0 122.5 52.5t67.5 164.5l228 1070h249l-237 -1115q-43 -203 -126 -293.5t-252 -90.5q-79 0 -187 18zM398 1340q13 61 57 97t101 36q71 0 110 -49q29 -34 29 -82q0 -19 -5 -41q-13 -60 -57.5 -96.5t-99.5 -36.5q-76 0 -113 50 q-26 36 -26 82q0 19 4 40z" />
<glyph unicode="k" horiz-adv-x="1112" d="M123 0l324 1526h249l-198 -932h31l435 389h315l-523 -440l332 -543h-308l-270 492h-34l-105 -492h-248z" />
<glyph unicode="l" horiz-adv-x="534" d="M143 0l324 1526h250l-325 -1526h-249z" />
<glyph unicode="m" horiz-adv-x="1832" d="M129 0l209 983h235l-29 -157q160 185 366 185q132 0 193 -57t69 -163q178 220 405 220q183 1 241 -109q34 -63 34 -158q0 -70 -18 -157l-125 -587h-248l122 574q12 64 14 114v6q1 46 -27 74q-30 30 -92 30q-122 0 -211.5 -89.5t-120.5 -226.5l-103 -482h-248l122 574 q14 74 14 119q-1 46 -29 75q-30 30 -93 30q-122 0 -210.5 -90t-120.5 -244l-99 -464h-250z" />
<glyph unicode="n" horiz-adv-x="1200" d="M123 0l209 983h234l-29 -157q181 185 383 185q188 -1 257 -111q43 -68 43 -171q0 -64 -17 -142l-125 -587h-250l122 574q11 54 11 97q0 10 -1 19q-3 50 -36.5 79t-97.5 29q-125 0 -224.5 -91.5t-131.5 -242.5l-99 -464h-248z" />
<glyph unicode="o" horiz-adv-x="1236" d="M180 341q-1 15 -1 31q0 66 14 139q22 105 74.5 195.5t129.5 158.5t184 107t231 39q174 0 286 -73.5t149 -193.5q20 -65 20 -139q0 -63 -15 -133q-46 -218 -210.5 -359t-408.5 -141q-106 0 -190 27.5t-138.5 76.5t-87.5 117t-37 148zM432 362q6 -52 25.5 -91t65.5 -62 t113 -23q146 0 241 92t125 233q10 47 10 88q0 69 -28 119q-46 80 -176 80q-147 0 -242 -92.5t-125 -233.5q-11 -42 -11 -82z" />
<glyph unicode="p" horiz-adv-x="1284" d="M18 -492l314 1475h234l-29 -155q168 183 379 183q154 0 253 -71.5t131 -192.5q16 -60 16 -127q0 -70 -17 -148q-47 -221 -197 -360.5t-364 -139.5q-221 0 -323 189l-14 -8l-30 -153l-104 -492h-249zM465 472q-9 -40 -9 -75q0 -76 40 -131q58 -80 180 -80q144 0 244.5 90 t131.5 235q10 46 10 85q0 73 -34 124q-52 78 -180 78q-141 0 -247.5 -94t-135.5 -232z" />
<glyph unicode="q" horiz-adv-x="1284" d="M192 236q-16 60 -16 128q0 69 17 147q47 222 196.5 361t365.5 139q227 0 327 -188l12 8l33 152h243l-313 -1475h-249l104 492l32 143q-167 -171 -369 -171q-153 0 -251.5 71t-131.5 193zM441 472q-10 -46 -10 -86q0 -72 33 -122q52 -78 181 -78q137 0 245.5 92.5 t137.5 232.5q8 39 8 74q0 76 -38 131q-57 82 -181 82q-144 0 -244.5 -90.5t-131.5 -235.5z" />
<glyph unicode="r" horiz-adv-x="804" d="M123 0l209 983h234l-33 -169l2 8q149 189 323 189q58 0 117 -16l-40 -235q-48 17 -118 17q-137 0 -227 -85t-120 -228l-99 -464h-248z" />
<glyph unicode="s" horiz-adv-x="1007" d="M97 42l72 210q61 -38 146.5 -60.5t163.5 -22.5q100 0 171.5 34.5t85.5 99.5q2 8 2 15q0 25 -22 43q-28 23 -75.5 35t-107 23t-117.5 29.5t-103 47t-65 82.5q-12 30 -12 67q0 29 7 62q33 154 154.5 229t298.5 75q204 0 375 -88l-89 -193q-49 37 -130.5 63t-149.5 26 q-80 0 -136.5 -32t-69.5 -92q-6 -30 14.5 -50.5t58.5 -31.5t88 -22t102 -22.5t99.5 -32.5t81.5 -52t48 -82q7 -25 7 -54q0 -31 -8 -67q-18 -86 -68.5 -148.5t-123 -96t-152 -49t-171.5 -15.5q-184 0 -375 70z" />
<glyph unicode="t" horiz-adv-x="794" d="M202 780l45 203h186l69 324h249l-69 -324h261l-45 -203h-259l-85 -397q-17 -75 -17 -118q0 -23 5 -38q13 -38 75 -38h9q76 2 148 22l-22 -214q-116 -30 -211 -30q-174 0 -226 106q-27 55 -27 143q0 81 23 190l79 374h-188z" />
<glyph unicode="u" horiz-adv-x="1181" d="M191 225q-1 17 -1 34q0 64 17 137l125 587h248l-121 -570q-12 -60 -12 -106q1 -7 1 -15q2 -50 36 -78.5t101 -28.5q125 0 216.5 86.5t123.5 238.5l101 473h248l-209 -983h-239l26 144q-163 -172 -355 -172q-101 0 -169.5 31.5t-99.5 87.5t-37 134z" />
<glyph unicode="v" horiz-adv-x="1091" d="M233 983h269l90 -735l409 735h282l-609 -983h-250z" />
<glyph unicode="w" horiz-adv-x="1685" d="M233 983h269l49 -697h1l376 697h240l78 -697h2l347 697h282l-552 -983h-245l-86 691h-1l-382 -691h-246z" />
<glyph unicode="x" horiz-adv-x="1103" d="M17 0l502 498l-269 485h292l143 -317l286 317h308l-484 -485l286 -498h-294l-155 341l-306 -341h-309z" />
<glyph unicode="y" horiz-adv-x="1091" d="M108 -493l319 480l-194 996h269l95 -740l405 740h281l-606 -983l-286 -493h-283z" />
<glyph unicode="z" horiz-adv-x="983" d="M63 0l31 163l653 617h-506l47 203h838l-31 -162l-655 -617h543l-48 -204h-872z" />
<glyph unicode="{" horiz-adv-x="765" d="M219 594l11 151q50 0 90 16.5t66.5 43t47.5 68t33 82t24 95.5l75 353q27 129 101 200.5t220 71.5h153l-33 -152h-38q-82 0 -134.5 -50.5t-77.5 -164.5l-68 -318q-12 -56 -27.5 -100.5t-31 -75.5t-36 -55t-38.5 -38t-42.5 -25t-43 -16t-45.5 -10l-23 -4q29 -6 50 -14 t45 -23t38 -39.5t23.5 -58.5t7 -85.5t-16.5 -115.5l-68 -318q-25 -115 -1 -155.5t105 -40.5h60l-33 -151h-132q-75 0 -126.5 23.5t-74 63.5t-29 93t8.5 111l75 353q9 43 13.5 68t8.5 59.5t1.5 54t-10.5 42t-24 34t-42 19.5t-62 8z" />
<glyph unicode="|" horiz-adv-x="561" d="M175 -139l384 1806h152l-384 -1806h-152z" />
<glyph unicode="}" horiz-adv-x="765" d="M11 -335l32 151h39q81 0 133.5 50.5t77.5 164.5l68 319q14 65 31.5 114.5t39.5 82.5t42.5 55t48.5 35.5t49.5 20t53.5 12.5l24 4q-29 6 -50 14t-45.5 23t-38.5 39t-23.5 58.5t-7.5 85.5t16 115l68 319q25 115 1 155t-105 40h-59l32 152h132q75 0 126.5 -23.5t74 -64 t29 -93t-8.5 -111.5l-74 -352q-7 -33 -11 -53t-8.5 -48.5t-4.5 -46t1 -39t7.5 -34.5t16.5 -27t25.5 -21t37.5 -12t50 -5l-10 -151q-62 0 -108 -23.5t-75 -69t-46.5 -94.5t-32.5 -118l-75 -352q-27 -129 -100.5 -200.5t-219.5 -71.5h-153z" />
<glyph unicode="~" horiz-adv-x="1357" d="M297 548q29 47 63 89t79.5 86t99 70.5t106.5 26.5q48 0 91.5 -19t75 -46t60 -54t58 -46t57.5 -19q92 0 212 176l131 -95q-67 -111 -156.5 -192t-188.5 -81q-49 0 -92 19t-73.5 45.5t-58 53.5t-58 46t-61.5 19q-52 0 -102.5 -46.5t-109.5 -128.5z" />
<glyph unicode="&#xa1;" horiz-adv-x="866" d="M201 -498l231 1042h234l-213 -1042h-252zM457 870q13 61 60 101.5t111 40.5q79 0 118.5 -52.5t23.5 -128.5q-13 -62 -59.5 -102.5t-109.5 -40.5q-80 0 -120 52.5t-24 129.5z" />
<glyph unicode="&#xa2;" horiz-adv-x="1062" d="M246 761q44 205 191 333.5t360 157.5l60 233h158l-59 -227q149 -11 266 -62l-40 -213q-111 50 -251 61l-149 -603q131 9 277 64l-12 -226q-125 -48 -290 -55l-58 -224h-158l60 231q-202 31 -301.5 172t-53.5 358zM494 722q-22 -104 12 -176t121 -96l143 577 q-99 -24 -175.5 -107t-100.5 -198z" />
<glyph unicode="&#xa3;" horiz-adv-x="1193" d="M61 0l49 227h134l99 462h-128l34 158h127l45 211q49 229 185 340t369 111q200 0 384 -93l-48 -227q-181 88 -343 88q-251 0 -301 -237l-41 -193h460l-42 -158h-451l-99 -462h646l-48 -227h-1031z" />
<glyph unicode="&#xa4;" horiz-adv-x="1175" d="M112 285l184 153q-82 144 -44 323q37 173 169 299l-115 140l87 78l115 -141q150 104 323 104q181 0 295 -117l185 154l69 -78l-188 -155q86 -146 49 -323q-37 -175 -172 -301l116 -136l-87 -78l-115 139q-147 -102 -322 -102q-185 0 -299 114l-182 -151zM409 722 q-28 -130 43.5 -221t201.5 -91q147 0 272.5 103t156.5 248q28 132 -43.5 223t-202.5 91q-96 0 -187 -47t-155.5 -128.5t-85.5 -177.5z" />
<glyph unicode="&#xa5;" horiz-adv-x="1228" d="M174 198l48 157h340l30 141h-355l48 157h272l-259 832h284l182 -751l507 751h298l-613 -832h280l-48 -157h-339l-30 -141h353l-48 -157h-339l-42 -198h-257l42 198h-354z" />
<glyph unicode="&#xa6;" horiz-adv-x="561" d="M175 -139l149 698h151l-148 -698h-152zM411 969l148 698h152l-148 -698h-152z" />
<glyph unicode="&#xa7;" horiz-adv-x="1234" d="M209 -188l52 204q53 -28 141 -46.5t154 -18.5q78 0 137 30t71 88q7 33 -19.5 59t-73 46t-104 41.5t-113 51.5t-98 69t-61 102.5t-1.5 143.5q25 117 107 207t204 145q-156 98 -116 283q21 99 90 167.5t161 98.5t201 30q102 0 196.5 -18t156.5 -46l-52 -204q-54 29 -141 47 t-153 18q-78 0 -137 -30t-71 -88q-7 -33 19.5 -59t73 -46t104 -41t113 -51t98 -69t61 -102.5t1.5 -143.5q-25 -115 -108 -206t-204 -148q155 -102 117 -280q-21 -100 -90.5 -169t-161.5 -99t-201 -30q-206 0 -353 64zM542 609q-6 -30 1.5 -55.5t21 -42.5t44 -36t52 -29 t64.5 -28q87 30 152.5 90.5t83.5 144.5q6 30 -1.5 55t-21 42t-44 36t-52.5 29t-64 28q-87 -29 -152.5 -89t-83.5 -145z" />
<glyph unicode="&#xa8;" horiz-adv-x="524" d="M165 1287q10 50 52 85t92 35q66 0 104 -47t24 -112q-11 -50 -53.5 -86t-92.5 -36q-65 0 -102.5 48t-23.5 113zM625 1287q10 50 52 85t92 35q66 0 104 -47t24 -112q-11 -50 -53.5 -86t-92.5 -36q-65 0 -102.5 48t-23.5 113z" />
<glyph unicode="&#xa9;" horiz-adv-x="1662" d="M244 761q44 206 180.5 379.5t330.5 274.5t400 101q129 0 242 -40.5t194.5 -113t136 -172t67 -218t-12.5 -250.5q-44 -206 -181.5 -379t-332 -273.5t-400.5 -100.5q-215 0 -375 106t-227.5 288.5t-21.5 397.5zM333.5 517q9.5 -96 53 -176.5t109 -139t157 -91t197.5 -32.5 q140 0 278.5 54t250 145.5t193 218t110.5 265.5q20 109 10.5 205.5t-53.5 177.5t-109.5 139.5t-157.5 91.5t-198 33q-186 0 -363.5 -92t-302.5 -250t-164 -344q-20 -109 -10.5 -205zM568 556.5q-19 89.5 5 204.5q45 210 197.5 327t358.5 117q154 0 291 -54l-27 -141 q-132 50 -253 50q-155 0 -268 -88.5t-147 -249.5q-31 -146 33.5 -221.5t204.5 -75.5q128 0 295 55l6 -152q-141 -48 -290 -48q-108 0 -193 32t-139.5 93.5t-73.5 151z" />
<glyph unicode="&#xaa;" horiz-adv-x="813" d="M205 547l28 134h629l-28 -134h-629zM284 1045q20 97 96 154.5t171 57.5q76 0 133.5 -32.5t91.5 -86.5l32 118q14 65 -15 94t-98 29q-58 0 -133.5 -16.5t-132.5 -37.5l-8 151q53 18 140.5 30.5t150.5 12.5q155 0 225 -78.5t44 -199.5l-45 -213q-36 -172 -36 -226l-173 19 q1 14 5 43.5t4 33.5q-50 -50 -113.5 -77.5t-127.5 -27.5q-111 0 -173 70t-38 182zM452 1006q-8 -41 14.5 -63.5t73.5 -22.5q67 0 127.5 34.5t97.5 87.5q-9 37 -46.5 62.5t-91.5 25.5q-66 0 -115 -35t-60 -89z" />
<glyph unicode="&#xab;" horiz-adv-x="1226" d="M227 492l422 467l151 -108l-333 -359l177 -360l-181 -107zM674 492l422 467l150 -108l-334 -359l178 -360l-179 -107z" />
<glyph unicode="&#xac;" horiz-adv-x="1400" d="M310 689l33 155h1073l-119 -563h-155l87 408h-919z" />
<glyph unicode="&#xad;" horiz-adv-x="776" d="M180 411l46 218h592l-46 -218h-592z" />
<glyph unicode="&#xae;" horiz-adv-x="1662" d="M244 761q44 206 180.5 379.5t330.5 274.5t400 101q129 0 242 -40.5t194.5 -113t136 -172t67 -218t-12.5 -250.5q-44 -206 -181.5 -379t-332 -273.5t-400.5 -100.5q-215 0 -375 106t-227.5 288.5t-21.5 397.5zM333.5 517q9.5 -96 53 -176.5t109 -139t157 -91t197.5 -32.5 q140 0 278.5 54t250 145.5t193 218t110.5 265.5q20 109 10.5 205.5t-53.5 177.5t-109.5 139.5t-157.5 91.5t-198 33q-186 0 -363.5 -92t-302.5 -250t-164 -344q-20 -109 -10.5 -205zM607 297l189 891h384q127 0 189.5 -90t34.5 -222q-22 -102 -92.5 -172.5t-175.5 -87.5 l159 -319h-192l-146 311h-127l-66 -311h-157zM858 743h204q66 0 120 50t69 121q13 60 -12.5 98t-90.5 38h-224z" />
<glyph unicode="&#xaf;" horiz-adv-x="524" d="M217 1167l33 158h586l-33 -158h-586z" />
<glyph unicode="&#xb0;" horiz-adv-x="837" d="M338 1201q28 134 138.5 224.5t244.5 90.5q149 0 231 -102.5t51 -250.5q-29 -137 -139 -229.5t-244 -92.5q-150 0 -232 104.5t-50 255.5zM453 1163q-18 -83 26 -140.5t125 -57.5q97 0 179.5 69t103.5 167q17 81 -26 136t-124 55q-97 0 -180.5 -67t-103.5 -162z" />
<glyph unicode="&#xb1;" horiz-adv-x="1376" d="M180 74l37 177h1069l-37 -177h-1069zM309 682l38 179h446l73 343h178l-73 -343h445l-38 -179h-445l-73 -342h-177l72 342h-446z" />
<glyph unicode="&#xb2;" horiz-adv-x="811" d="M266 901l30 186q203 122 325.5 210t175 146.5t63.5 109.5q5 23 -5 38.5t-32.5 22.5t-45.5 9.5t-54 2.5q-139 0 -272 -38l-2 191q131 36 295 36q75 0 136.5 -14.5t110.5 -45t69 -86t4 -131.5q-24 -112 -141 -217.5t-374 -242.5l419 4l-46 -181h-656z" />
<glyph unicode="&#xb3;" horiz-adv-x="833" d="M285 918l43 187q45 -14 126.5 -26t139.5 -12q86 0 142 31.5t69 90.5q6 30 -4 49t-38 27t-51.5 10t-64.5 2h-188l26 170h196q38 0 74 9.5t67.5 35.5t39.5 65q4 19 -1.5 32.5t-16 20.5t-30.5 11t-35.5 4.5t-40.5 0.5q-135 0 -272 -37l-3 190q146 36 292 36q56 0 105 -7.5 t93.5 -25t74 -44.5t42 -68t1.5 -93q-16 -74 -70 -130.5t-140 -88.5l-23 -3q82 -21 129.5 -87t27.5 -160q-17 -81 -84 -134.5t-151 -74.5t-181 -21q-154 0 -294 40z" />
<glyph unicode="&#xb4;" horiz-adv-x="524" d="M343 1116l296 334l237 -27l-334 -307h-199z" />
<glyph unicode="&#xb6;" horiz-adv-x="1325" d="M278 535q41 193 189.5 320.5t359.5 127.5h626l-34 -156h-153l-280 -1319h-212l115 543h-239q-142 0 -237.5 65.5t-129.5 175t-5 243.5z" />
<glyph unicode="&#xb7;" d="M269 627q13 62 60.5 103.5t111.5 41.5q80 0 119.5 -53.5t23.5 -130.5q-13 -61 -60 -102t-111 -41q-80 0 -120 53.5t-24 128.5z" />
<glyph unicode="&#xb8;" horiz-adv-x="524" d="M-37 -412l11 79q80 -31 157 -31q69 0 119 28.5t60 74.5q7 33 -20.5 47.5t-70.5 14.5q-46 0 -114 -19l-24 38l154 180h110l-123 -130q31 7 57 7q83 0 130.5 -48.5t30.5 -130.5q-11 -54 -56 -91.5t-99 -52.5t-113 -15q-105 0 -209 49z" />
<glyph unicode="&#xb9;" horiz-adv-x="686" d="M408 1591l308 201h180l-189 -891h-196l143 672l-167 -112z" />
<glyph unicode="&#xba;" horiz-adv-x="868" d="M205 547l28 134h691l-29 -134h-690zM311 1176q31 148 149.5 245.5t277.5 97.5q172 0 258.5 -110t52.5 -272q-31 -148 -149.5 -246.5t-274.5 -98.5q-174 0 -261 110.5t-53 273.5zM486 1137q-17 -83 16.5 -138t112.5 -55q94 0 167 67.5t94 164.5q17 82 -16.5 137.5 t-111.5 55.5q-95 0 -168.5 -68t-93.5 -164z" />
<glyph unicode="&#xbb;" horiz-adv-x="1226" d="M190 132l334 360l-178 359l181 108l236 -467l-421 -467zM637 132l333 360l-178 359l181 108l236 -467l-421 -467z" />
<glyph unicode="&#xbc;" horiz-adv-x="1898" d="M342 1283l309 202h180l-189 -891h-196l143 672l-168 -112zM350 22l1337 1526l119 -85l-1338 -1526zM1156 166l32 170l534 555h201l-118 -555h136l-48 -170h-124l-36 -166h-195l35 166h-417zM1405 336h204l56 264z" />
<glyph unicode="&#xbd;" horiz-adv-x="1966" d="M342 1283l309 202h180l-189 -891h-196l143 672l-168 -112zM350 22l1337 1526l119 -85l-1338 -1526zM1230 0l30 186q299 179 423 284t141 182q5 23 -4.5 38.5t-32 22.5t-45 9.5t-53.5 2.5q-141 0 -274 -38l-3 191q131 36 297 36q74 0 135.5 -14.5t110.5 -45t69 -86 t4 -131.5q-24 -112 -141 -217.5t-374 -242.5l418 4l-45 -181h-656z" />
<glyph unicode="&#xbe;" horiz-adv-x="2048" d="M219 611l44 186q45 -14 126 -25.5t140 -11.5q86 0 142 31.5t69 90.5q6 30 -4 49t-38 27t-51.5 10t-64.5 2h-188l25 170h196q38 0 74 9.5t68 35.5t40 65q4 19 -2 32.5t-16 20.5t-30.5 11t-36 4.5t-40.5 0.5q-135 0 -272 -37l-3 189q150 37 293 37q70 0 130 -13t108 -39.5 t69.5 -74.5t7.5 -112q-32 -151 -209 -218l-23 -3q82 -21 129.5 -87t27.5 -160q-17 -81 -84.5 -134.5t-151.5 -74.5t-181 -21q-154 0 -294 40zM499 22l1336 1526l120 -85l-1337 -1526zM1308 166l32 170l534 555h201l-118 -555h135l-48 -170h-123l-36 -166h-197l35 166h-415z M1555 336h204l56 264z" />
<glyph unicode="&#xbf;" horiz-adv-x="1206" d="M88 -115q14 67 46 123.5t73.5 95.5t91 76t99 64.5t99 60.5t89.5 66t70.5 79.5t42.5 101.5l231 -19q-19 -88 -58 -159t-88 -117t-104 -84t-109 -69t-100 -63t-79.5 -75.5t-44.5 -96.5q-35 -167 227 -167q112 0 232.5 25.5t215.5 62.5l-19 -250q-198 -76 -456 -76 q-117 0 -209.5 25t-157.5 74.5t-90 132t-2 189.5zM721 867q13 61 61 103t112 42q80 0 120 -54t24 -129q-13 -62 -60.5 -103t-111.5 -41q-80 0 -120.5 53t-24.5 129z" />
<glyph unicode="&#xc0;" horiz-adv-x="1513" d="M13 0l943 1485h227l311 -1485h-283l-54 322h-655l-193 -322h-296zM636 546h483l-106 630zM803 1868l232 26l154 -292h-185z" />
<glyph unicode="&#xc1;" horiz-adv-x="1513" d="M13 0l943 1485h227l311 -1485h-283l-54 322h-655l-193 -322h-296zM636 546h483l-106 630zM1000 1602l278 292l237 -26l-315 -266h-200z" />
<glyph unicode="&#xc2;" horiz-adv-x="1513" d="M13 0l943 1485h227l311 -1485h-283l-54 322h-655l-193 -322h-296zM636 546h483l-106 630zM746 1602l285 280h240l169 -280h-191l-113 164h-1l-187 -164h-202z" />
<glyph unicode="&#xc3;" horiz-adv-x="1513" d="M13 0l943 1485h227l311 -1485h-283l-54 322h-655l-193 -322h-296zM636 546h483l-106 630zM764 1610q20 93 88.5 173t152.5 80q40 0 78 -16t61 -35.5t48.5 -35.5t43.5 -16q44 0 82.5 37t50.5 76l115 -19q-21 -101 -82.5 -177t-143.5 -76q-41 0 -79 16t-62 35.5t-50.5 35.5 t-47.5 16q-48 0 -87 -35.5t-53 -77.5z" />
<glyph unicode="&#xc4;" horiz-adv-x="1513" d="M13 0l943 1485h227l311 -1485h-283l-54 322h-655l-193 -322h-296zM636 546h483l-106 630zM760 1760q11 50 53 85t92 35q66 0 103.5 -46.5t24.5 -111.5q-11 -52 -53.5 -86.5t-92.5 -34.5q-66 0 -103.5 46.5t-23.5 112.5zM1221 1760q10 50 52 85t92 35q66 0 104 -46.5 t25 -111.5q-11 -52 -53.5 -86.5t-92.5 -34.5q-66 0 -103.5 46.5t-23.5 112.5z" />
<glyph unicode="&#xc5;" horiz-adv-x="1513" d="M13 0l943 1485h227l311 -1485h-283l-54 322h-655l-193 -322h-296zM636 546h483l-106 630zM937 1823q17 77 83 135t142 58q94 0 147 -69.5t33 -164.5q-17 -79 -83 -136.5t-145 -57.5q-93 0 -145 71.5t-32 163.5zM1025 1782q-9 -42 10.5 -70t58.5 -28q56 0 102.5 41 t58.5 98q8 42 -10.5 69.5t-58.5 27.5q-56 0 -102.5 -41t-58.5 -97z" />
<glyph unicode="&#xc6;" horiz-adv-x="2187" d="M12 0l1251 1485h1088l-49 -231h-706l-82 -387h651l-51 -231h-649l-86 -406h735l-49 -230h-992l70 327h-561l-265 -327h-305zM763 551h427l150 703h-5z" />
<glyph unicode="&#xc7;" horiz-adv-x="1429" d="M246 761q40 187 127.5 332t212 238t279.5 140.5t336 47.5q244 0 458 -81l-37 -235q-97 38 -214 58.5t-218 20.5q-270 0 -450.5 -141.5t-239.5 -418.5q-56 -262 54 -390.5t366 -128.5q243 0 487 85l-25 -247q-227 -74 -460 -76l-91 -95q31 7 57 7q83 0 131 -48.5 t31 -130.5q-11 -54 -56.5 -91.5t-99.5 -52.5t-113 -15q-105 0 -209 49l12 79q80 -31 156 -31q69 0 119 28.5t60 74.5q7 33 -20.5 47.5t-70.5 14.5q-46 0 -114 -19l-24 38l127 149q-338 25 -492.5 228.5t-78.5 563.5z" />
<glyph unicode="&#xc8;" horiz-adv-x="1325" d="M170 0l316 1485h1017l-49 -231h-762l-84 -397h705l-53 -231h-701l-84 -396h789l-49 -230h-1045zM739 1868l232 26l154 -292h-185z" />
<glyph unicode="&#xc9;" horiz-adv-x="1325" d="M170 0l316 1485h1017l-49 -231h-762l-84 -397h705l-53 -231h-701l-84 -396h789l-49 -230h-1045zM937 1602l278 292l236 -26l-314 -266h-200z" />
<glyph unicode="&#xca;" horiz-adv-x="1325" d="M170 0l316 1485h1017l-49 -231h-762l-84 -397h705l-53 -231h-701l-84 -396h789l-49 -230h-1045zM682 1602l285 280h240l170 -280h-192l-112 164h-1l-188 -164h-202z" />
<glyph unicode="&#xcb;" horiz-adv-x="1325" d="M170 0l316 1485h1017l-49 -231h-762l-84 -397h705l-53 -231h-701l-84 -396h789l-49 -230h-1045zM697 1760q11 50 52.5 85t91.5 35q66 0 103.5 -46.5t24.5 -111.5q-11 -52 -53 -86.5t-92 -34.5q-66 0 -103.5 46.5t-23.5 112.5zM1158 1760q10 50 52 85t92 35 q66 0 103.5 -46.5t24.5 -111.5q-11 -52 -53.5 -86.5t-92.5 -34.5q-66 0 -103 46.5t-23 112.5z" />
<glyph unicode="&#xcc;" d="M170 0l316 1485h255l-315 -1485h-256zM344 1868l232 26l154 -292h-185z" />
<glyph unicode="&#xcd;" d="M170 0l316 1485h255l-315 -1485h-256zM541 1602l279 292l236 -26l-314 -266h-201z" />
<glyph unicode="&#xce;" d="M170 0l316 1485h255l-315 -1485h-256zM287 1602l285 280h240l169 -280h-191l-113 164l-188 -164h-202z" />
<glyph unicode="&#xcf;" d="M170 0l316 1485h255l-315 -1485h-256zM302 1760q11 50 52.5 85t91.5 35q66 0 103.5 -46.5t24.5 -111.5q-11 -52 -53 -86.5t-92 -34.5q-66 0 -103.5 46.5t-23.5 112.5zM763 1760q11 50 52.5 85t90.5 35q66 0 104 -46.5t25 -111.5q-11 -52 -53.5 -86.5t-92.5 -34.5 q-66 0 -103 46.5t-23 112.5z" />
<glyph unicode="&#xd0;" horiz-adv-x="1591" d="M168 652l38 179h141l139 654h532q374 0 550.5 -207t102.5 -556q-72 -336 -322.5 -529t-624.5 -193h-554l138 652h-140zM473 222h277q265 0 439 139.5t229 399.5q53 247 -55.5 374.5t-370.5 127.5h-298l-92 -432h388l-39 -180h-387z" />
<glyph unicode="&#xd1;" horiz-adv-x="1671" d="M170 0l316 1485h279l555 -1092h8l229 1092h260l-316 -1485h-280l-555 1092h-8l-230 -1092h-258zM844 1610q20 93 88 173t152 80q40 0 78 -16t61 -35.5t48.5 -35.5t43.5 -16q44 0 82.5 37t50.5 76l115 -19q-21 -101 -82.5 -177t-143.5 -76q-41 0 -79 16t-62 35.5 t-50.5 35.5t-47.5 16q-48 0 -87 -35.5t-53 -77.5z" />
<glyph unicode="&#xd2;" horiz-adv-x="1748" d="M246 761q46 214 181 387.5t332.5 272t417.5 98.5q138 0 255.5 -39.5t200 -111t136.5 -171t65 -219t-15 -256.5q-45 -214 -181 -387t-333 -271.5t-417 -98.5q-230 0 -394 104.5t-229.5 286.5t-18.5 405zM500 722q-30 -143 5.5 -258.5t137.5 -185t255 -69.5 q122 0 235.5 43.5t199.5 118.5t147 175.5t85 214.5q30 143 -6 259t-138 186t-254 70q-163 0 -305.5 -75.5t-235.5 -201t-126 -277.5zM921 1868l232 26l154 -292h-185z" />
<glyph unicode="&#xd3;" horiz-adv-x="1748" d="M246 761q46 214 181 387.5t332.5 272t417.5 98.5q138 0 255.5 -39.5t200 -111t136.5 -171t65 -219t-15 -256.5q-45 -214 -181 -387t-333 -271.5t-417 -98.5q-230 0 -394 104.5t-229.5 286.5t-18.5 405zM500 722q-30 -143 5.5 -258.5t137.5 -185t255 -69.5 q122 0 235.5 43.5t199.5 118.5t147 175.5t85 214.5q30 143 -6 259t-138 186t-254 70q-163 0 -305.5 -75.5t-235.5 -201t-126 -277.5zM1119 1602l278 292l236 -26l-314 -266h-200z" />
<glyph unicode="&#xd4;" horiz-adv-x="1748" d="M246 761q46 214 181 387.5t332.5 272t417.5 98.5q138 0 255.5 -39.5t200 -111t136.5 -171t65 -219t-15 -256.5q-45 -214 -181 -387t-333 -271.5t-417 -98.5q-230 0 -394 104.5t-229.5 286.5t-18.5 405zM500 722q-30 -143 5.5 -258.5t137.5 -185t255 -69.5 q122 0 235.5 43.5t199.5 118.5t147 175.5t85 214.5q30 143 -6 259t-138 186t-254 70q-163 0 -305.5 -75.5t-235.5 -201t-126 -277.5zM864 1602l285 280h240l170 -280h-192l-112 164h-1l-187 -164h-203z" />
<glyph unicode="&#xd5;" horiz-adv-x="1748" d="M246 761q46 214 181 387.5t332.5 272t417.5 98.5q230 0 393.5 -104.5t229 -287t18.5 -405.5q-34 -160 -122 -300t-210 -240.5t-277.5 -158.5t-320.5 -58q-230 0 -394 104.5t-229.5 286.5t-18.5 405zM500 722q-30 -143 5.5 -258.5t137.5 -185t255 -69.5q122 0 235.5 43.5 t199.5 118.5t147 175.5t85 214.5q30 143 -6 259.5t-138 186t-254 69.5q-163 0 -305.5 -75.5t-235.5 -201t-126 -277.5zM883 1610q20 93 88 173t152 80q40 0 78 -16t61 -35.5t48.5 -35.5t43.5 -16q44 0 83 37t51 76l114 -19q-21 -101 -82.5 -177t-143.5 -76q-41 0 -79 16 t-62 35.5t-50.5 35.5t-47.5 16q-48 0 -87 -35.5t-53 -77.5z" />
<glyph unicode="&#xd6;" horiz-adv-x="1748" d="M246 761q46 214 181 387.5t332.5 272t417.5 98.5q138 0 255.5 -39.5t200 -111t136.5 -171t65 -219t-15 -256.5q-45 -214 -181 -387t-333 -271.5t-417 -98.5q-230 0 -394 104.5t-229.5 286.5t-18.5 405zM500 722q-30 -143 5.5 -258.5t137.5 -185t255 -69.5 q122 0 235.5 43.5t199.5 118.5t147 175.5t85 214.5q30 143 -6 259t-138 186t-254 70q-163 0 -305.5 -75.5t-235.5 -201t-126 -277.5zM879 1760q11 50 52.5 85t91.5 35q66 0 103.5 -46.5t24.5 -111.5q-11 -52 -53 -87t-92 -35q-66 0 -103.5 47t-23.5 113zM1340 1760 q10 50 52 85t92 35q66 0 103.5 -46.5t24.5 -111.5q-11 -52 -53.5 -87t-92.5 -35q-65 0 -102.5 47t-23.5 113z" />
<glyph unicode="&#xd7;" horiz-adv-x="1337" d="M256 307l440 362l-286 364l145 126l285 -365l443 365l106 -126l-442 -364l287 -362l-144 -126l-287 362l-441 -363z" />
<glyph unicode="&#xd8;" horiz-adv-x="1748" d="M159 12l196 183q-86 108 -115 251.5t6 314.5q46 214 181 387.5t332.5 272t417.5 98.5q265 0 441 -138l192 180l77 -72l-193 -181q95 -110 127.5 -258.5t-3.5 -327.5q-34 -160 -122 -300t-210 -240.5t-277.5 -158.5t-320.5 -58q-281 0 -460 154l-191 -179zM500 722 q-43 -207 47 -346l880 826q-104 74 -260 74q-163 0 -305.5 -75.5t-235.5 -201t-126 -277.5zM617 297q107 -88 281 -88q122 0 235.5 43.5t199.5 118.5t147 175.5t85 214.5q23 108 7 203t-69 165z" />
<glyph unicode="&#xd9;" horiz-adv-x="1613" d="M300 611l186 874h257l-185 -871q-86 -405 273 -405q67 0 127.5 13.5t118.5 45.5t104.5 80t83 121t56.5 165l181 851h257l-189 -894q-65 -308 -259 -467t-490 -159q-311 0 -449 168t-72 478zM853 1868l232 26l154 -292h-185z" />
<glyph unicode="&#xda;" horiz-adv-x="1613" d="M300 611l186 874h257l-185 -871q-86 -405 273 -405q67 0 127.5 13.5t118.5 45.5t104.5 80t83 121t56.5 165l181 851h257l-189 -894q-65 -308 -259 -467t-490 -159q-311 0 -449 168t-72 478zM1050 1602l279 292l236 -26l-314 -266h-201z" />
<glyph unicode="&#xdb;" horiz-adv-x="1613" d="M300 611l186 874h257l-185 -871q-86 -405 273 -405q67 0 127.5 13.5t118.5 45.5t104.5 80t83 121t56.5 165l181 851h257l-189 -894q-65 -308 -259 -467t-490 -159q-311 0 -449 168t-72 478zM796 1602l285 280h240l169 -280h-191l-113 164h-1l-187 -164h-202z" />
<glyph unicode="&#xdc;" horiz-adv-x="1613" d="M300 611l186 874h257l-185 -871q-86 -405 273 -405q67 0 127.5 13.5t118.5 45.5t104.5 80t83 121t56.5 165l181 851h257l-189 -894q-65 -308 -259 -467t-490 -159q-311 0 -449 168t-72 478zM811 1760q11 50 52.5 85t91.5 35q66 0 103.5 -46.5t24.5 -111.5 q-11 -52 -53 -86.5t-92 -34.5q-66 0 -103.5 46.5t-23.5 112.5zM1271 1760q10 50 52 85t92 35q66 0 104 -46.5t25 -111.5q-11 -52 -53.5 -86.5t-92.5 -34.5q-66 0 -103.5 46.5t-23.5 112.5z" />
<glyph unicode="&#xdd;" horiz-adv-x="1425" d="M357 1485h282l222 -756l550 756h298l-760 -998l-108 -487h-257l107 487zM956 1602l279 292l236 -26l-314 -266h-201z" />
<glyph unicode="&#xde;" horiz-adv-x="1294" d="M166 0l316 1485h259l-61 -287h266q114 0 203 -27.5t151.5 -84.5t82.5 -145.5t-3 -210.5q-47 -220 -203.5 -326.5t-391.5 -106.5h-297l-63 -297h-259zM536 519h261q73 0 140 28t117.5 85.5t66.5 135.5q12 55 -2 96t-49.5 64.5t-82.5 35t-105 11.5h-249z" />
<glyph unicode="&#xdf;" horiz-adv-x="1275" d="M132 0l229 1077q43 204 192 328t374 124q144 0 251 -47.5t158.5 -144t23.5 -226.5q-27 -125 -106 -206.5t-223 -148.5q72 -15 127 -44t96 -77t53 -113t-4 -152q-38 -181 -190 -288t-373 -107q-97 0 -193 27l38 205q55 -30 141 -30q118 0 211 67t117 181q24 112 -47 176 t-235 74l14 168q116 5 213.5 80t124.5 202q17 82 -33 142t-164 60q-125 0 -210.5 -79t-113.5 -208l-221 -1040h-250z" />
<glyph unicode="&#xe0;" horiz-adv-x="1165" d="M149.5 164q-15.5 64 1.5 150q61 286 440 286q96 0 302 -15l21 52q20 93 -23 134.5t-151 41.5q-87 0 -203 -22.5t-194 -50.5l15 207q77 26 203 45t219 19q226 0 321 -111.5t58 -287.5l-130 -612h-240l25 135q-143 -162 -370 -162q-72 0 -132.5 21t-103.5 63.5t-58.5 106.5 zM391 272q-14 -66 21.5 -101.5t109.5 -35.5q71 0 140.5 30t133.5 101t98 173q-45 -2 -75.5 -1.5t-75.5 1.5t-58 1q-258 0 -294 -168zM519 1423l233 27l155 -334h-184z" />
<glyph unicode="&#xe1;" horiz-adv-x="1165" d="M149.5 164q-15.5 64 1.5 150q61 286 440 286q96 0 302 -15l21 52q20 93 -23 134.5t-151 41.5q-87 0 -203 -22.5t-194 -50.5l15 207q77 26 203 45t219 19q226 0 321 -111.5t58 -287.5l-130 -612h-240l24 135q-143 -162 -369 -162q-72 0 -132.5 21t-103.5 63.5t-58.5 106.5 zM391 272q-14 -66 21.5 -101.5t109.5 -35.5q71 0 140.5 30t133.5 101t98 173q-45 -2 -75.5 -1.5t-75.5 1.5t-58 1q-258 0 -294 -168zM723 1116l296 334l237 -27l-334 -307h-199z" />
<glyph unicode="&#xe2;" horiz-adv-x="1165" d="M149.5 164q-15.5 64 1.5 150q61 286 440 286q96 0 302 -15l21 52q20 93 -23 134.5t-151 41.5q-87 0 -203 -22.5t-194 -50.5l15 207q77 26 203 45t219 19q226 0 321 -111.5t58 -287.5l-130 -612h-240l25 135q-143 -162 -370 -162q-72 0 -132.5 21t-103.5 63.5t-58.5 106.5 zM391 272q-14 -66 21.5 -101.5t109.5 -35.5q71 0 140.5 30t133.5 101t98 173q-45 -2 -75.5 -1.5t-75.5 1.5t-58 1q-258 0 -294 -168zM468 1116l291 307h240l163 -307h-191l-109 184l-192 -184h-202z" />
<glyph unicode="&#xe3;" horiz-adv-x="1165" d="M149.5 164q-15.5 64 1.5 150q61 286 440 286q96 0 302 -15l21 52q20 93 -23 134.5t-151 41.5q-87 0 -203 -22.5t-194 -50.5l15 207q77 26 203 45t219 19q226 0 321 -111.5t58 -287.5l-130 -612h-240l24 135q-143 -162 -369 -162q-72 0 -132.5 21t-103.5 63.5t-58.5 106.5 zM391 272q-14 -66 21.5 -101.5t109.5 -35.5q52 0 105 18t104 53t93.5 95t68.5 138q-45 -2 -75 -1.5t-75 1.5t-58 1q-258 0 -294 -168zM490 1139q20 95 89.5 180t152.5 85q40 0 78 -18.5t60.5 -40t48 -40t43.5 -18.5q43 0 83 43.5t52 83.5l115 -20q-22 -102 -85 -183.5 t-144 -81.5q-41 0 -78.5 18.5t-60.5 40t-49.5 40t-47.5 18.5q-47 0 -87.5 -41.5t-55.5 -84.5z" />
<glyph unicode="&#xe4;" horiz-adv-x="1165" d="M149.5 164q-15.5 64 1.5 150q61 286 440 286q96 0 302 -15l21 52q20 93 -23 134.5t-151 41.5q-87 0 -203 -22.5t-194 -50.5l15 207q77 26 203 45t219 19q226 0 321 -111.5t58 -287.5l-130 -612h-240l24 135q-143 -162 -369 -162q-72 0 -132.5 21t-103.5 63.5t-58.5 106.5 zM391 272q-14 -66 21.5 -101.5t109.5 -35.5q52 0 105 18t104 53t93.5 95t68.5 138q-45 -2 -75 -1.5t-75 1.5t-58 1q-258 0 -294 -168zM485 1287q10 50 52 85t92 35q66 0 104.5 -47t24.5 -112q-11 -50 -54 -86t-93 -36q-65 0 -102.5 48t-23.5 113zM945 1287q10 50 52 85 t92 35q66 0 104.5 -47t24.5 -112q-11 -50 -54 -86t-93 -36q-65 0 -102.5 48t-23.5 113z" />
<glyph unicode="&#xe5;" horiz-adv-x="1165" d="M149.5 164q-15.5 64 1.5 150q61 286 440 286q96 0 302 -15l21 52q20 93 -23 134.5t-151 41.5q-87 0 -203 -22.5t-194 -50.5l15 207q77 26 203 45t219 19q226 0 321 -111.5t58 -287.5l-130 -612h-240l24 135q-143 -162 -369 -162q-72 0 -132.5 21t-103.5 63.5t-58.5 106.5 zM391 272q-14 -66 21.5 -101.5t109.5 -35.5q71 0 140.5 30t133.5 101t98 173q-45 -2 -75.5 -1.5t-75.5 1.5t-58 1q-258 0 -294 -168zM650 1295q17 78 83.5 136t142.5 58q95 0 148 -69.5t33 -164.5q-17 -79 -84 -136t-146 -57q-93 0 -145 70.5t-32 162.5zM738 1255 q-9 -42 10.5 -69.5t59.5 -27.5q56 0 102 40t58 97q8 42 -10.5 69.5t-58.5 27.5q-56 0 -102.5 -40.5t-58.5 -96.5z" />
<glyph unicode="&#xe6;" horiz-adv-x="1789" d="M149.5 164q-15.5 64 1.5 150q61 286 439 286q78 0 284 -15l21 52q20 92 -20.5 134t-138.5 42q-83 0 -200 -22.5t-193 -50.5l15 207q75 26 202 45t216 19q125 0 203 -40.5t102 -109.5q147 150 358 150q227 0 327 -137.5t46 -391.5l-14 -65l-703 -9q-19 -121 46.5 -172.5 t198.5 -51.5q186 0 357 63l-14 -224q-170 -51 -357 -51q-177 0 -287 65t-134 194q-166 -258 -461 -258q-72 0 -132.5 21t-103.5 63.5t-58.5 106.5zM391 272q-14 -66 21.5 -101.5t109.5 -35.5q110 0 206 76t146 228q-44 -2 -70.5 -1.5t-66 1.5t-53.5 1q-257 0 -293 -168z M1125 575l465 20q45 226 -160 226q-100 0 -187.5 -66.5t-117.5 -179.5z" />
<glyph unicode="&#xe7;" horiz-adv-x="1062" d="M193 511q52 242 224.5 371t426.5 129q186 0 325 -64l-38 -212q-62 29 -145.5 46t-142.5 17q-160 0 -264.5 -85t-137.5 -241q-61 -286 231 -286q70 0 164.5 18.5t171.5 48.5l-15 -225q-139 -54 -319 -56l-97 -102q31 7 57 7q83 0 131 -48.5t31 -130.5q-11 -54 -56.5 -91.5 t-99.5 -52.5t-113 -15q-104 0 -208 49l11 79q80 -31 157 -31q69 0 119 28.5t60 74.5q7 33 -20.5 47.5t-70.5 14.5q-46 0 -114 -19l-24 38l133 157q-223 24 -324.5 163t-52.5 371z" />
<glyph unicode="&#xe8;" horiz-adv-x="1132" d="M184.5 261.5q-18.5 101.5 8.5 245.5q52 246 209.5 375t379.5 129q227 0 326.5 -137.5t45.5 -391.5l-13 -65l-713 -9q-19 -122 47 -173t208 -51q186 0 357 63l-14 -224q-170 -51 -358 -51q-133 0 -231.5 29.5t-166 94t-86 166zM458 575l475 20q45 226 -161 226 q-109 0 -196.5 -65.5t-117.5 -180.5zM525 1423l234 27l154 -334h-183z" />
<glyph unicode="&#xe9;" horiz-adv-x="1132" d="M177 304q-11 88 15 203q52 245 210 374.5t380 129.5q227 0 326.5 -137.5t45.5 -391.5l-13 -65l-713 -9q-19 -122 47 -173t208 -51q186 0 357 63l-14 -224q-170 -51 -358 -51q-106 0 -190 19t-150 59t-103 103t-48 151zM458 575l475 20q45 226 -161 226 q-109 0 -196.5 -65.5t-117.5 -180.5zM730 1116l296 334l236 -27l-333 -307h-199z" />
<glyph unicode="&#xea;" horiz-adv-x="1132" d="M177 304q-11 88 15 203q52 245 210 374.5t380 129.5q227 0 326.5 -137.5t45.5 -391.5l-13 -65l-713 -9q-19 -122 47 -173t208 -51q186 0 357 63l-14 -224q-170 -51 -358 -51q-106 0 -190 19t-150 59t-103 103t-48 151zM458 575l475 20q45 226 -161 226 q-109 0 -196.5 -65.5t-117.5 -180.5zM474 1116l291 307h240l164 -307h-191l-109 184h-1l-191 -184h-203z" />
<glyph unicode="&#xeb;" horiz-adv-x="1132" d="M177 304q-11 88 15 203q52 245 210 374.5t380 129.5q227 0 326.5 -137.5t45.5 -391.5l-13 -65l-713 -9q-19 -122 47 -173t208 -51q186 0 357 63l-14 -224q-170 -51 -358 -51q-106 0 -190 19t-150 59t-103 103t-48 151zM458 575l475 20q45 226 -161 226 q-109 0 -196.5 -65.5t-117.5 -180.5zM492 1287q10 50 52 85t92 35q66 0 104 -47t24 -112q-11 -50 -53.5 -86t-92.5 -36q-65 0 -102.5 48t-23.5 113zM952 1287q10 50 52 85t92 35q66 0 104 -47t24 -112q-11 -50 -53.5 -86t-92.5 -36q-65 0 -102.5 48t-23.5 113z" />
<glyph unicode="&#xec;" horiz-adv-x="520" d="M136 0l209 983h249l-208 -983h-250zM198 1423l233 27l154 -334h-183z" />
<glyph unicode="&#xed;" horiz-adv-x="520" d="M136 0l209 983h249l-208 -983h-250zM402 1116l296 334l237 -27l-334 -307h-199z" />
<glyph unicode="&#xee;" horiz-adv-x="520" d="M136 0l209 983h249l-208 -983h-250zM146 1116l291 307h240l164 -307h-191l-109 184h-1l-191 -184h-203z" />
<glyph unicode="&#xef;" horiz-adv-x="520" d="M136 0l209 983h249l-208 -983h-250zM164 1287q10 50 52 85t92 35q66 0 104 -47t24 -112q-11 -50 -53.5 -86t-92.5 -36q-65 0 -102.5 48t-23.5 113zM624 1287q10 50 52 85t92 35q66 0 104 -47t24 -112q-11 -50 -53.5 -86t-92.5 -36q-65 0 -102.5 48t-23.5 113z" />
<glyph unicode="&#xf0;" horiz-adv-x="1241" d="M196 524q43 203 193.5 338t348.5 135q134 0 250 -72q-25 144 -114 319l-226 -116l-44 99l218 111q-73 123 -148 204l283 -3q42 -54 73 -107l217 112l54 -93l-216 -110q108 -205 161.5 -445t13.5 -429q-30 -140 -115.5 -253.5t-218 -181t-286.5 -67.5q-247 0 -372 155.5 t-72 403.5zM443 473q-26 -122 27.5 -201t175.5 -79q137 0 240.5 91.5t131.5 226.5q26 120 -28.5 200t-176.5 80q-138 0 -239.5 -91t-130.5 -227z" />
<glyph unicode="&#xf1;" horiz-adv-x="1200" d="M123 0l209 983h234l-29 -157q181 185 383 185q188 0 257 -110.5t26 -313.5l-125 -587h-250l122 574q13 66 10 116t-36.5 79t-97.5 29q-125 0 -224.5 -91.5t-131.5 -242.5l-99 -464h-248zM508 1139q20 95 89.5 180t152.5 85q40 0 77.5 -18.5t60.5 -40t48 -40t43 -18.5 q43 0 83.5 43.5t52.5 83.5l115 -20q-22 -102 -85 -183.5t-144 -81.5q-41 0 -78.5 18.5t-60.5 40t-49.5 40t-47.5 18.5q-47 0 -87.5 -41.5t-55.5 -84.5z" />
<glyph unicode="&#xf2;" horiz-adv-x="1236" d="M180 341q-4 80 13 170q22 105 74.5 195.5t129.5 158.5t184 107t231 39q174 0 286 -73.5t149 -194t5 -271.5q-46 -218 -210.5 -359t-408.5 -141q-106 0 -190 27.5t-138.5 76.5t-87.5 117t-37 148zM431.5 362q5.5 -52 25.5 -91t66 -62t113 -23q146 0 241 92t125 233 q27 127 -18.5 207t-175.5 80q-147 0 -242 -92.5t-125 -233.5q-15 -58 -9.5 -110zM555 1423l234 27l154 -334h-183z" />
<glyph unicode="&#xf3;" horiz-adv-x="1236" d="M180 341q-4 80 13 170q22 105 74.5 195.5t129.5 158.5t184 107t231 39q174 0 286 -73.5t149 -194t5 -271.5q-46 -218 -210.5 -359t-408.5 -141q-106 0 -190 27.5t-138.5 76.5t-87.5 117t-37 148zM431.5 362q5.5 -52 25.5 -91t66 -62t113 -23q146 0 241 92t125 233 q27 127 -18.5 207t-175.5 80q-147 0 -242 -92.5t-125 -233.5q-15 -58 -9.5 -110zM760 1116l296 334l236 -27l-333 -307h-199z" />
<glyph unicode="&#xf4;" horiz-adv-x="1236" d="M180 341q-4 80 13 170q22 105 74.5 195.5t129.5 158.5t184 107t231 39q174 0 286 -73.5t149 -194t5 -271.5q-46 -218 -210.5 -359t-408.5 -141q-106 0 -190 27.5t-138.5 76.5t-87.5 117t-37 148zM431.5 362q5.5 -52 25.5 -91t66 -62t113 -23q146 0 241 92t125 233 q27 127 -18.5 207t-175.5 80q-147 0 -242 -92.5t-125 -233.5q-15 -58 -9.5 -110zM504 1116l291 307h240l164 -307h-191l-109 184h-1l-191 -184h-203z" />
<glyph unicode="&#xf5;" horiz-adv-x="1236" d="M180 341q-4 80 13 170q22 105 74.5 195.5t129.5 158.5t184 107t231 39q174 0 286 -73.5t149 -194t5 -271.5q-46 -218 -210.5 -359t-408.5 -141q-106 0 -190 27.5t-138.5 76.5t-87.5 117t-37 148zM431.5 362q5.5 -52 25.5 -91t66 -62t113 -23q146 0 241 92t125 233 q27 127 -18.5 207t-175.5 80q-147 0 -242 -92.5t-125 -233.5q-15 -58 -9.5 -110zM526 1139q20 95 90 180t153 85q40 0 77.5 -18.5t60.5 -40t48 -40t43 -18.5q43 0 83.5 43t52.5 83l115 -19q-22 -102 -85 -183.5t-144 -81.5q-41 0 -78.5 18.5t-61 40t-50 40t-47.5 18.5 q-47 0 -87 -41.5t-55 -84.5z" />
<glyph unicode="&#xf6;" horiz-adv-x="1236" d="M180 341q-4 80 13 170q22 105 74.5 195.5t129.5 158.5t184 107t231 39q174 0 286 -73.5t149 -194t5 -271.5q-46 -218 -210.5 -359t-408.5 -141q-106 0 -190 27.5t-138.5 76.5t-87.5 117t-37 148zM431.5 362q5.5 -52 25.5 -91t66 -62t113 -23q146 0 241 92t125 233 q27 127 -18.5 207t-175.5 80q-147 0 -242 -92.5t-125 -233.5q-15 -58 -9.5 -110zM522 1287q10 50 52 85t92 35q66 0 104 -47t24 -112q-11 -50 -53.5 -86t-92.5 -36q-65 0 -102.5 48t-23.5 113zM982 1287q10 50 52 85t92 35q66 0 104 -47t24 -112q-11 -50 -53.5 -86 t-92.5 -36q-65 0 -102.5 48t-23.5 113z" />
<glyph unicode="&#xf7;" horiz-adv-x="1396" d="M287 580l38 179h1069l-38 -179h-1069zM638 325q11 49 49 82t86 33q62 0 97.5 -45.5t22.5 -107.5q-10 -47 -49.5 -81t-85.5 -34q-63 0 -98 45.5t-22 107.5zM792 1051q11 49 49 81.5t86 32.5q62 0 97.5 -45.5t22.5 -107.5q-10 -47 -49.5 -80.5t-85.5 -33.5q-63 0 -98 45.5 t-22 107.5z" />
<glyph unicode="&#xf8;" horiz-adv-x="1236" d="M79 12l162 137q-93 145 -48 362q22 105 74.5 195.5t129.5 158.5t184 107t231 39q204 0 323 -100l161 137l70 -76l-162 -138q93 -145 48 -362q-46 -218 -210.5 -359t-408.5 -141q-203 0 -323 99l-159 -136zM439 318l513 437q-53 43 -144 43q-147 0 -242 -92.5t-125 -233.5 q-19 -86 -2 -154zM494 228q53 -42 142 -42q146 0 241 92t125 233q19 88 3 153z" />
<glyph unicode="&#xf9;" horiz-adv-x="1181" d="M191 225q-6 78 16 171l125 587h248l-121 -570q-14 -71 -11.5 -121.5t36.5 -78.5t101 -28q125 0 216.5 86.5t123.5 238.5l101 473h248l-209 -983h-239l26 144q-163 -172 -355 -172q-101 0 -169.5 31.5t-99.5 87.5t-37 134zM527 1423l234 27l154 -334h-183z" />
<glyph unicode="&#xfa;" horiz-adv-x="1181" d="M191 225q-6 78 16 171l125 587h248l-121 -570q-14 -71 -11.5 -121.5t36.5 -78.5t101 -28q125 0 216.5 86.5t123.5 238.5l101 473h248l-209 -983h-239l26 144q-163 -172 -355 -172q-101 0 -169.5 31.5t-99.5 87.5t-37 134zM732 1116l296 334l237 -27l-334 -307h-199z" />
<glyph unicode="&#xfb;" horiz-adv-x="1181" d="M191 225q-6 78 16 171l125 587h248l-121 -570q-14 -71 -11.5 -121.5t36.5 -78.5t101 -28q125 0 216.5 86.5t123.5 238.5l101 473h248l-209 -983h-239l26 144q-163 -172 -355 -172q-101 0 -169.5 31.5t-99.5 87.5t-37 134zM476 1116l291 307h240l164 -307h-191l-109 184 h-1l-191 -184h-203z" />
<glyph unicode="&#xfc;" horiz-adv-x="1181" d="M191 225q-6 78 16 171l125 587h248l-121 -570q-14 -71 -11.5 -121.5t36.5 -78.5t101 -28q125 0 216.5 86.5t123.5 238.5l101 473h248l-209 -983h-239l26 144q-163 -172 -355 -172q-101 0 -169.5 31.5t-99.5 87.5t-37 134zM494 1287q10 50 52 85t92 35q66 0 104 -47 t24 -112q-11 -50 -53.5 -86t-92.5 -36q-65 0 -102.5 48t-23.5 113zM954 1287q10 50 52 85t92 35q66 0 104 -47t24 -112q-11 -50 -53.5 -86t-92.5 -36q-65 0 -102.5 48t-23.5 113z" />
<glyph unicode="&#xfd;" horiz-adv-x="1091" d="M108 -493l319 480l-194 996h269l95 -740l405 740h281l-606 -983l-286 -493h-283zM687 1116l296 334l236 -27l-333 -307h-199z" />
<glyph unicode="&#xfe;" horiz-adv-x="1284" d="M18 -492l430 2024h249l-117 -549l-31 -142q166 170 367 170q154 0 253 -71.5t131 -192.5t-1 -275q-47 -221 -197 -360.5t-364 -139.5q-221 0 -323 189l-14 -8l-30 -153l-104 -492h-249zM465 472q-27 -127 29 -206.5t182 -79.5q140 0 242 89t134 236q28 133 -26 210 t-178 77q-139 0 -245.5 -91t-137.5 -235z" />
<glyph unicode="&#xff;" horiz-adv-x="1091" d="M108 -493l319 480l-194 996h269l95 -740l405 740h281l-606 -983l-286 -493h-283zM449 1287q10 50 52 85t92 35q66 0 104 -47t24 -112q-11 -50 -53.5 -86t-92.5 -36q-65 0 -102.5 48t-23.5 113zM909 1287q10 50 52 85t92 35q66 0 104 -47t24 -112q-11 -50 -53.5 -86 t-92.5 -36q-65 0 -102.5 48t-23.5 113z" />
<glyph unicode="&#x152;" horiz-adv-x="2254" d="M284.5 593q1.5 82 17.5 168q31 144 111 274t198 230.5t280.5 160t344.5 59.5h1183l-49 -231h-714l-82 -387h658l-53 -231h-654l-86 -406h742l-49 -230h-1191q-105 0 -197 21t-163 60t-128 93t-92.5 120t-56.5 141.5t-19.5 157.5zM546.5 575q4.5 -70 36.5 -130.5t83 -105 t130 -69.5t176 -25h214l212 996h-193q-121 0 -233 -42.5t-195.5 -114.5t-141 -165.5t-79.5 -196.5q-14 -77 -9.5 -147z" />
<glyph unicode="&#x153;" horiz-adv-x="1910" d="M178.5 341q-2.5 80 14.5 170q22 106 72.5 196t125.5 158t180.5 107t228.5 39q130 0 221.5 -51t136.5 -137q85 99 192.5 146t222.5 45q100 -2 176.5 -34t129 -97t66 -164.5t-13.5 -236.5l-14 -65l-704 -9q-10 -114 60 -169t192 -55q175 0 344 63l-16 -224 q-169 -51 -343 -51q-148 0 -254.5 47.5t-153.5 139.5q-171 -187 -421 -187q-105 0 -188.5 27.5t-135.5 76.5t-84 117t-34.5 148zM441 472q-28 -132 15 -209t168 -77q134 0 229 93t127 237q25 125 -22.5 203.5t-161.5 78.5q-141 0 -232.5 -90t-122.5 -236zM1246 575l462 20 q23 117 -20 171.5t-133 54.5q-105 0 -191 -67.5t-118 -178.5z" />
<glyph unicode="&#x178;" horiz-adv-x="1425" d="M357 1485h282l222 -756l550 756h298l-760 -998l-108 -487h-257l107 487zM717 1760q11 50 52.5 85t91.5 35q66 0 103.5 -46.5t24.5 -111.5q-11 -52 -53 -86.5t-92 -34.5q-66 0 -103.5 46.5t-23.5 112.5zM1178 1760q11 50 52.5 85t90.5 35q66 0 104 -46.5t25 -111.5 q-11 -52 -53.5 -86.5t-92.5 -34.5q-66 0 -103 46.5t-23 112.5z" />
<glyph unicode="&#x2c6;" horiz-adv-x="522" d="M143 1116l291 307h240l164 -307h-191l-109 184h-1l-191 -184h-203z" />
<glyph unicode="&#x2dc;" horiz-adv-x="524" d="M169 1139q20 95 89.5 180t152.5 85q40 0 77.5 -18.5t60.5 -40t48 -40t43 -18.5q43 0 83.5 43.5t52.5 83.5l115 -20q-22 -102 -85 -183.5t-144 -81.5q-41 0 -78.5 18.5t-60.5 40t-49.5 40t-47.5 18.5q-47 0 -87.5 -41.5t-55.5 -84.5z" />
<glyph unicode="&#x2000;" horiz-adv-x="1008" />
<glyph unicode="&#x2001;" horiz-adv-x="2016" />
<glyph unicode="&#x2002;" horiz-adv-x="1008" />
<glyph unicode="&#x2003;" horiz-adv-x="2016" />
<glyph unicode="&#x2004;" horiz-adv-x="672" />
<glyph unicode="&#x2005;" horiz-adv-x="504" />
<glyph unicode="&#x2006;" horiz-adv-x="336" />
<glyph unicode="&#x2007;" horiz-adv-x="336" />
<glyph unicode="&#x2008;" horiz-adv-x="252" />
<glyph unicode="&#x2009;" horiz-adv-x="403" />
<glyph unicode="&#x200a;" horiz-adv-x="112" />
<glyph unicode="&#x2010;" horiz-adv-x="776" d="M180 411l46 218h592l-46 -218h-592z" />
<glyph unicode="&#x2011;" horiz-adv-x="776" d="M180 411l46 218h592l-46 -218h-592z" />
<glyph unicode="&#x2012;" horiz-adv-x="776" d="M180 411l46 218h592l-46 -218h-592z" />
<glyph unicode="&#x2013;" horiz-adv-x="1230" d="M180 411l46 218h1047l-46 -218h-1047z" />
<glyph unicode="&#x2014;" horiz-adv-x="2174" d="M180 411l46 218h1990l-46 -218h-1990z" />
<glyph unicode="&#x2018;" horiz-adv-x="608" d="M329 927q110 275 314 583l195 -32q-135 -250 -253 -570z" />
<glyph unicode="&#x2019;" horiz-adv-x="608" d="M282 925q146 274 254 569l256 -19q-110 -271 -316 -581z" />
<glyph unicode="&#x201a;" horiz-adv-x="589" d="M14 -271q138 255 253 569l256 -19q-113 -279 -314 -581z" />
<glyph unicode="&#x201c;" horiz-adv-x="1044" d="M329 927q111 273 316 582l193 -31q-143 -269 -252 -570zM764 927q115 279 316 582l194 -31q-141 -263 -254 -570z" />
<glyph unicode="&#x201d;" horiz-adv-x="1044" d="M282 925q146 271 255 569l256 -19q-115 -279 -316 -582zM719 925q144 271 252 569l257 -19q-111 -273 -316 -582z" />
<glyph unicode="&#x201e;" horiz-adv-x="1026" d="M14 -272q141 263 254 570l256 -19q-115 -279 -316 -582zM450 -272q146 275 253 570l256 -19q-111 -273 -316 -582z" />
<glyph unicode="&#x2022;" horiz-adv-x="1073" d="M346 761q30 140 147.5 237.5t255.5 97.5q154 0 240 -110t53 -264q-29 -139 -146.5 -236t-255.5 -97q-154 0 -240 109.5t-54 262.5z" />
<glyph unicode="&#x2026;" horiz-adv-x="1785" d="M169 155q13 63 60 104t111 41q80 0 120 -53.5t24 -130.5q-13 -61 -60.5 -102.5t-111.5 -41.5q-80 0 -119.5 53.5t-23.5 129.5zM764 155q13 63 60 104t111 41q80 0 120.5 -53.5t24.5 -130.5q-13 -61 -61 -102.5t-112 -41.5q-80 0 -119.5 53.5t-23.5 129.5zM1360 155 q13 62 60.5 103.5t111.5 41.5q79 0 118.5 -53.5t23.5 -130.5q-13 -61 -60 -102.5t-110 -41.5q-80 0 -120 54t-24 129z" />
<glyph unicode="&#x202f;" horiz-adv-x="403" />
<glyph unicode="&#x2039;" horiz-adv-x="782" d="M227 492l422 467l151 -108l-333 -359l177 -360l-181 -107z" />
<glyph unicode="&#x203a;" horiz-adv-x="782" d="M190 132l334 360l-178 359l181 108l236 -467l-421 -467z" />
<glyph unicode="&#x205f;" horiz-adv-x="504" />
<glyph unicode="&#x20ac;" horiz-adv-x="1413" d="M168 504l47 157l131 10q8 52 15 87q10 49 18 73l-144 -10l48 158l148 9q111 254 309.5 383.5t454.5 129.5q204 0 405 -91l-45 -225q-184 86 -367 86q-162 0 -289.5 -78.5t-206.5 -222.5l701 9l-65 -158l-700 -9q-16 -51 -25 -92q-10 -42 -12 -68l667 9l-66 -157l-608 -9 q32 -285 337 -285q189 0 426 93l-14 -238q-220 -85 -419 -85q-271 0 -425 138t-156 395z" />
<glyph unicode="&#x2122;" horiz-adv-x="2119" d="M449 1341l30 144h708l-31 -144h-274l-159 -747h-159l159 747h-274zM1097 594l190 891h175l192 -548l433 548h184l-189 -891h-159l135 631l-399 -506h-78l-184 507h-6l-135 -632h-159z" />
<glyph unicode="&#x25fc;" horiz-adv-x="983" d="M0 0v983h983v-983h-983z" />
<glyph unicode="&#xfb01;" horiz-adv-x="1255" d="M206 780l55 203h186l23 110q21 99 60 173.5t88 120.5t113 75t129 40t143 11q126 0 227.5 -21.5t212.5 -60.5l-45 -211q-73 37 -178 62.5t-193 25.5q-124 0 -204.5 -52t-106.5 -175l-21 -98h196l-43 -203h-196l-166 -780h-248l165 780h-197zM871 0l209 983h251l-209 -983 h-251z" />
<glyph unicode="&#xfb02;" horiz-adv-x="1271" d="M206 780l55 203h186l30 143q21 100 50 169t73.5 119.5t109 74.5t152.5 24q78 0 188 -20l-23 -205q-41 13 -101 13q-88 0 -137.5 -54.5t-72.5 -165.5l-21 -98h200l-43 -203h-200l-166 -780h-248l165 780h-197zM878 0l325 1526h249l-324 -1526h-250z" />
<glyph unicode="&#xfb03;" horiz-adv-x="1992" d="M206 780l55 203h186l30 143q21 100 50 169t74 119.5t109.5 74.5t153.5 24q90 0 200 -20l-37 -205q-41 13 -101 13q-90 0 -137 -50t-73 -170l-21 -98h203l-55 -203h-191l-166 -780h-248l165 780h-197zM941 780l56 203h185l23 110q89 420 522 420q245 0 451 -82l-45 -211 q-73 38 -177.5 63t-197.5 25q-259 0 -307 -227l-21 -98h196l-43 -203h-196l-166 -780h-248l166 780h-198zM1606 0l209 983h251l-209 -983h-251z" />
<glyph unicode="&#xfb04;" horiz-adv-x="2007" d="M206 780l55 203h186l30 143q21 100 50 169t74 119.5t109.5 74.5t153.5 24q90 0 200 -20l-37 -205q-41 13 -101 13q-88 0 -137.5 -54.5t-72.5 -165.5l-21 -98h203l-55 -203h-191l-166 -780h-248l165 780h-197zM943 780l55 203h185l30 143q21 100 50 169t74 119.5 t109.5 74.5t152.5 24q78 0 188 -20l-23 -205q-41 13 -102 13q-88 0 -137 -54.5t-72 -165.5l-21 -98h198l-43 -203h-199l-165 -780h-249l166 780h-197zM1615 0l324 1526h249l-324 -1526h-249z" />
</font>
</defs>
</svg>
