<?xml version="1.0" standalone="no"?>
<!DOCTYPE svg PUBLIC "-//W3C//DTD SVG 1.1//EN" "http://www.w3.org/Graphics/SVG/1.1/DTD/svg11.dtd" >
<svg xmlns="http://www.w3.org/2000/svg" xmlns:xlink="http://www.w3.org/1999/xlink" version="1.1">
<metadata></metadata>
<defs>
<font id="oculus_sansblack" horiz-adv-x="532" >
<font-face units-per-em="2048" ascent="1638" descent="-410" />
<missing-glyph horiz-adv-x="573" />
<glyph horiz-adv-x="0" />
<glyph horiz-adv-x="682" />
<glyph unicode="&#xd;" horiz-adv-x="626" />
<glyph unicode=" "  horiz-adv-x="573" />
<glyph unicode="&#x09;" horiz-adv-x="573" />
<glyph unicode="&#xa0;" horiz-adv-x="573" />
<glyph unicode="!" horiz-adv-x="886" d="M257 158q0 81 51 135.5t136 54.5q84 0 135.5 -55t51.5 -135t-51.5 -134t-135.5 -54q-85 0 -136 54t-51 134zM291 1485h305l-10 -1019h-283z" />
<glyph unicode="&#x22;" horiz-adv-x="1099" d="M184 1485h274l-14 -602h-245zM641 1485h275l-15 -602h-245z" />
<glyph unicode="#" horiz-adv-x="1275" d="M41 425v166h254l51 301h-227v166h258l75 427h174l-75 -427h285l75 427h174l-75 -427h225v-166h-254l-53 -301h228v-166h-257l-74 -425h-175l73 425h-283l-74 -425h-174l72 425h-223zM470 591h284l51 301h-283z" />
<glyph unicode="$" horiz-adv-x="1273" d="M82 1021q0 77 27 140.5t71 106.5t105.5 74.5t126 48.5t137.5 25v120h175v-117q245 -11 391 -64l-12 -263q-56 20 -170.5 39.5t-208.5 22.5v-283q54 -11 94.5 -21t92 -27.5t88.5 -37t75 -49.5t62 -65t39 -83t15 -105q0 -97 -36.5 -172.5t-103 -123t-146.5 -75.5t-180 -41 v-122h-175v115q-115 1 -238 19t-215 47l17 270q57 -19 192 -42t244 -29v310q-57 11 -96.5 20t-92.5 25.5t-89 35t-74.5 48t-61.5 64t-38 83t-15 106.5zM386 1031q0 -90 163 -121v236q-71 -4 -117 -34t-46 -81zM724 337q72 6 117.5 39t45.5 88q0 101 -163 137v-264z" />
<glyph unicode="%" horiz-adv-x="2019" d="M102 1113q0 167 118 285t284 118q168 0 286.5 -118t118.5 -285q0 -168 -118.5 -286t-286.5 -118q-167 0 -284.5 118t-117.5 286zM287 1113q0 -91 63 -154t154 -63q92 0 155 62.5t63 154.5q0 91 -63 154.5t-155 63.5q-91 0 -154 -63.5t-63 -154.5zM411 40l1054 1504 l145 -99l-1054 -1504zM1111 371q0 168 117.5 286t284.5 118q168 0 286 -118t118 -286q0 -167 -118 -284.5t-286 -117.5q-167 0 -284.5 117.5t-117.5 284.5zM1295 371q0 -91 63.5 -154t154.5 -63q92 0 154.5 63t62.5 154q0 92 -62.5 155t-154.5 63q-91 0 -154.5 -63 t-63.5 -155z" />
<glyph unicode="&#x26;" horiz-adv-x="1554" d="M67 345q0 135 87.5 245t226.5 187q-162 226 -162 374q0 159 116 264.5t312 105.5q181 0 295.5 -96t114.5 -256q0 -120 -80 -219t-227 -192q105 -112 271 -260q135 148 221 329h238v-130q-120 -218 -258 -373q119 -100 258 -213v-111h-313q-48 39 -157 131 q-235 -167 -508 -167q-194 0 -314.5 98.5t-120.5 282.5zM388 383q0 -67 45 -105.5t127 -38.5q116 0 244 76q-160 148 -284 289q-61 -46 -96.5 -104.5t-35.5 -116.5zM496 1151q0 -84 111 -229q176 120 176 229q0 57 -38.5 96.5t-103.5 39.5q-67 0 -106 -41.5t-39 -94.5z" />
<glyph unicode="'" horiz-adv-x="643" d="M184 1485h274l-14 -602h-245z" />
<glyph unicode="(" horiz-adv-x="634" d="M102 670q0 531 349 1013l152 -120q-247 -415 -247 -893q0 -476 247 -895l-152 -119q-349 480 -349 1014z" />
<glyph unicode=")" horiz-adv-x="634" d="M31 -225q247 419 247 895t-247 893l152 120q348 -480 348 -1013q0 -536 -348 -1014z" />
<glyph unicode="*" horiz-adv-x="1112" d="M72 1063l58 184l209 -68l144 -72l-25 159v219h195v-219l-27 -159l146 70l209 70l60 -186l-207 -67l-160 -28l112 -111l129 -177l-159 -115l-127 174l-74 144l-73 -140l-129 -176l-159 113l129 177l112 113l-156 27z" />
<glyph unicode="+" horiz-adv-x="1366" d="M164 565v209h430v430h209v-430h430v-209h-430v-430h-209v430h-430z" />
<glyph unicode="," horiz-adv-x="620" d="M62 -279q105 329 141 609h303q-24 -142 -78 -289t-140 -337z" />
<glyph unicode="-" horiz-adv-x="763" d="M92 389v262h580v-262h-580z" />
<glyph unicode="." horiz-adv-x="620" d="M124 158q0 81 51 135.5t135 54.5q85 0 136 -54.5t51 -135.5q0 -80 -51 -134.5t-136 -54.5q-84 0 -135 54.5t-51 134.5z" />
<glyph unicode="/" horiz-adv-x="905" d="M-10 -102l651 1638h255l-655 -1638h-251z" />
<glyph unicode="0" horiz-adv-x="1417" d="M102 741q0 173 33.5 311t103.5 245t189 165.5t280 58.5q129 0 231.5 -38.5t172 -107t115 -167.5t66 -214.5t20.5 -252.5t-20.5 -252.5t-66 -213.5t-115 -166t-171.5 -106.5t-232 -38.5q-161 0 -280 58t-189 164.5t-103.5 244t-33.5 310.5zM417 741q0 -113 16 -202.5 t50 -157.5t91 -105t134 -37t134 37t91 105t50 157.5t16 202.5t-16 202.5t-50 158.5t-91 106.5t-134 37.5t-134 -37.5t-91 -106.5t-50 -158.5t-16 -202.5z" />
<glyph unicode="1" horiz-adv-x="991" d="M83 1156l430 329h274v-1485h-304v1143h-2l-243 -190z" />
<glyph unicode="2" horiz-adv-x="1265" d="M83 0v280q217 161 364 285.5t228.5 216.5t115 158t33.5 124q0 47 -25 81t-68 52t-90.5 26.5t-101.5 8.5q-104 0 -232.5 -22.5t-199.5 -45.5l-15 289q259 68 482 68q90 0 168.5 -12t153.5 -42.5t128.5 -77t86 -120.5t32.5 -169q0 -193 -159.5 -382.5t-535.5 -437.5h695 l-11 -280h-1049z" />
<glyph unicode="3" horiz-adv-x="1300" d="M112 32l19 296q69 -24 221.5 -49.5t254.5 -25.5q129 0 200 48t71 140q0 196 -309 196h-294l-9 262h331q63 0 115.5 14.5t91.5 54.5t39 102q0 61 -41 99t-96.5 50.5t-128.5 12.5q-171 0 -426 -68l-13 289q261 68 472 68q84 0 160.5 -11t149 -38t125 -67.5t84.5 -104.5 t32 -144q0 -132 -77 -232.5t-211 -155.5v-4q140 -35 232.5 -136t92.5 -248q0 -105 -52.5 -187t-141 -130.5t-196 -73.5t-227.5 -25q-110 0 -239.5 19t-229.5 49z" />
<glyph unicode="4" horiz-adv-x="1323" d="M61 287v262l676 936h303v-936h220l-10 -262h-210v-287h-303v287h-676zM383 549h354v486h-5z" />
<glyph unicode="5" horiz-adv-x="1314" d="M130 32l18 296q75 -30 189 -52.5t213 -22.5q70 0 129.5 12.5t108.5 38.5t76.5 71t27.5 105q0 67 -34.5 115.5t-93 73.5t-120.5 36.5t-131 11.5q-177 0 -323 -50l68 818h885l-16 -280h-605l-27 -265q63 8 163 8q275 0 414.5 -120.5t139.5 -342.5q0 -111 -36 -200t-97 -148 t-146 -98.5t-179.5 -57t-200.5 -17.5q-199 0 -423 68z" />
<glyph unicode="6" horiz-adv-x="1333" d="M102 495q0 150 76 340.5t193 362t249 297.5l368 -10q-123 -105 -236.5 -242t-198.5 -282q107 40 214 40q205 0 345 -139.5t140 -348.5q0 -164 -75.5 -289.5t-207 -192.5t-296.5 -67q-127 0 -235 42t-181 114t-114 169t-41 206zM408 498q0 -110 74 -184.5t191 -74.5 t191 74.5t74 183.5t-74.5 184t-191.5 75t-190.5 -74.5t-73.5 -183.5z" />
<glyph unicode="7" horiz-adv-x="1243" d="M72 1205l11 280h1097v-253l-580 -1232h-343l580 1205h-765z" />
<glyph unicode="8" horiz-adv-x="1351" d="M102 416q0 156 98 263.5t240 135.5v4q-122 35 -198 121.5t-76 209.5q0 89 43 161t115 117t162.5 69t189.5 24t189 -24t162 -69t114.5 -117t42.5 -161q0 -123 -76 -210t-198 -121v-4q141 -28 239 -135.5t98 -263.5q0 -198 -159 -325t-412 -127q-254 0 -414 127t-160 325z M424 457q0 -101 75 -159.5t177 -58.5q101 0 176 58.5t75 157.5q0 104 -77 170t-174 66q-100 0 -176 -65.5t-76 -168.5zM466 1092q0 -71 61.5 -111t146.5 -40q84 0 146.5 40.5t62.5 110.5q0 72 -62 113t-145 41q-86 0 -148 -41t-62 -113z" />
<glyph unicode="9" horiz-adv-x="1335" d="M83 972q0 164 75.5 289.5t206.5 192.5t296 67q127 0 234.5 -42.5t180.5 -115t114 -169.5t41 -206q0 -150 -77 -341t-193 -361t-246 -296l-368 10q123 105 235 241t196 281q-97 -38 -210 -38q-207 0 -346 139.5t-139 348.5zM397 988q0 -110 73.5 -185t190.5 -75t190.5 75 t73.5 185q0 109 -74 183.5t-190 74.5q-117 0 -190.5 -74.5t-73.5 -183.5z" />
<glyph unicode=":" horiz-adv-x="620" d="M124 158q0 81 51 135.5t135 54.5q85 0 136 -54.5t51 -135.5q0 -80 -51 -134.5t-136 -54.5q-84 0 -135 54.5t-51 134.5zM124 818q0 80 51 134.5t135 54.5q85 0 136 -54.5t51 -134.5t-51 -134t-136 -54q-84 0 -135 54t-51 134z" />
<glyph unicode=";" horiz-adv-x="620" d="M62 -279q105 329 141 609h303q-24 -142 -78 -289t-140 -337zM141 818q0 80 51 134.5t135 54.5t135.5 -54.5t51.5 -134.5t-51.5 -134t-135.5 -54q-85 0 -135.5 54t-50.5 134z" />
<glyph unicode="&#x3c;" horiz-adv-x="1351" d="M164 520v230l1024 519v-251l-814 -383l814 -383v-251z" />
<glyph unicode="=" horiz-adv-x="1396" d="M164 345v207h1069v-207h-1069zM164 785v207h1069v-207h-1069z" />
<glyph unicode="&#x3e;" horiz-adv-x="1351" d="M164 1v251l813 383l-813 383v251l1024 -519v-230z" />
<glyph unicode="?" horiz-adv-x="1236" d="M120 1459q174 62 454 62q120 0 217.5 -23t173.5 -71t117.5 -129.5t41.5 -191.5q0 -79 -25 -142t-65 -105t-89 -77.5t-97.5 -67t-89 -65t-66.5 -80t-27 -103.5h-283q0 89 23 159.5t60.5 114.5t82 79t89.5 61.5t82.5 53t60.5 63t23 82.5q0 153 -258 153q-106 0 -224 -21.5 t-187 -46.5zM337 158q0 81 51 135.5t136 54.5q84 0 135 -54.5t51 -135.5q0 -80 -51 -134.5t-135 -54.5q-85 0 -136 54.5t-51 134.5z" />
<glyph unicode="@" horiz-adv-x="1722" d="M102 365q0 128 37.5 250t109.5 224.5t170 180.5t227.5 122t273.5 44q131 0 245 -37t196 -99.5t141.5 -145.5t88.5 -176t29 -189q0 -110 -40.5 -213.5t-104 -176.5t-142.5 -117t-155 -44q-86 0 -124 55t-27 148h-5q-54 -87 -136 -145t-168 -58q-122 0 -198.5 97t-76.5 240 q0 90 32.5 182.5t87.5 168.5t137.5 124t173.5 48q73 0 130.5 -40t87.5 -104h4l18 119h146l-90 -561q-12 -74 -3.5 -102t43.5 -28q91 0 176.5 115.5t85.5 277.5q0 74 -21.5 147.5t-67 141t-109 119t-154 82.5t-196.5 31q-186 0 -339.5 -89t-241.5 -244t-88 -342 q0 -169 73 -305t211.5 -215.5t318.5 -79.5q223 0 395 118l95 -105q-225 -153 -492 -153q-164 0 -305.5 56t-239.5 153.5t-153.5 233.5t-55.5 291zM618 334q0 -76 34 -129.5t101 -53.5q65 0 120 34.5t89.5 87.5t54 113t19.5 115q0 77 -39.5 128.5t-113.5 51.5t-136 -53.5 t-95.5 -133t-33.5 -160.5z" />
<glyph unicode="A" horiz-adv-x="1529" d="M1 0l633 1485h264l632 -1485h-356l-102 273h-614l-101 -273h-356zM559 544h412l-206 553z" />
<glyph unicode="B" horiz-adv-x="1478" d="M154 0v1485h669q516 0 516 -352q0 -140 -73 -231t-195 -129v-4q152 -18 243.5 -109.5t91.5 -240.5q0 -83 -29.5 -152.5t-80 -118t-118 -82.5t-143 -50t-155.5 -16h-726zM467 268h414q97 0 151 53t54 127q0 76 -64.5 130.5t-186.5 54.5h-368v-365zM467 892h364 q94 0 141 50.5t47 117.5t-46.5 112t-152.5 45h-353v-325z" />
<glyph unicode="C" horiz-adv-x="1400" d="M72 741q0 198 64 350t178 244.5t264 139t330 46.5q222 0 444 -66l-8 -290q-98 31 -218.5 49t-218.5 18q-91 0 -167.5 -16.5t-142 -53t-110 -93t-70 -139.5t-25.5 -189q0 -131 38 -227.5t109 -152.5t162 -82t207 -26q99 0 219 18t217 49l8 -290q-222 -66 -444 -66 q-144 0 -268 28.5t-229.5 89.5t-180 151t-116.5 219.5t-42 288.5z" />
<glyph unicode="D" horiz-adv-x="1583" d="M154 0v1485h572q374 0 585 -189.5t211 -554.5q0 -244 -98 -412t-274.5 -248.5t-423.5 -80.5h-572zM467 268h259q120 0 205.5 24t147.5 78t92.5 146t30.5 225t-30.5 225.5t-92.5 147t-148 79t-205 24.5h-259v-949z" />
<glyph unicode="E" horiz-adv-x="1347" d="M154 0v1485h1061v-280h-748v-324h686l-4 -280h-682v-321h778v-280h-1091z" />
<glyph unicode="F" horiz-adv-x="1257" d="M154 0v1485h1041v-280h-728v-324h667l-4 -280h-663v-601h-313z" />
<glyph unicode="G" horiz-adv-x="1591" d="M72 741q0 165 46.5 297.5t127.5 221.5t193.5 148.5t239.5 86t272 26.5q231 0 465 -66l-6 -290q-100 30 -229.5 48.5t-239.5 18.5q-92 0 -171 -15.5t-150 -52t-120.5 -92t-78.5 -140t-29 -191.5q0 -125 39.5 -220t110.5 -153t163 -86.5t204 -28.5q115 0 259 31v321h-297 l-11 280h621v-813q-146 -54 -300 -81t-272 -27q-140 0 -264.5 30t-230 93t-181.5 153.5t-118.5 218.5t-42.5 282z" />
<glyph unicode="H" horiz-adv-x="1640" d="M154 0v1485h313v-604h706v604h313v-1485h-313v601h-706v-601h-313z" />
<glyph unicode="I" horiz-adv-x="620" d="M154 0v1485h313v-1485h-313z" />
<glyph unicode="J" horiz-adv-x="1089" d="M25 28l10 288q70 -26 175 -45.5t180 -19.5q128 0 180 65t52 212v957h311v-1000q0 -249 -124.5 -385t-356.5 -136q-234 0 -427 64z" />
<glyph unicode="K" horiz-adv-x="1501" d="M165 0v1485h312v-687h39l543 687h381l-624 -744l685 -741h-392l-587 681h-45v-681h-312z" />
<glyph unicode="L" horiz-adv-x="1136" d="M154 0v1485h313v-1205h660v-280h-973z" />
<glyph unicode="M" horiz-adv-x="1988" d="M163 0v1485h356l475 -891l477 891h354v-1485h-313v969h-4l-433 -793h-161l-434 793h-4v-969h-313z" />
<glyph unicode="N" horiz-adv-x="1679" d="M154 0v1485h346l709 -1006h4l-3 1006h316v-1485h-346l-709 1006h-4l3 -1006h-316z" />
<glyph unicode="O" horiz-adv-x="1744" d="M72 741q0 221 105 400t288 279.5t408 100.5q168 0 316 -59t254.5 -162t168 -248t61.5 -311q0 -165 -61.5 -309.5t-168 -247t-254.5 -161.5t-316 -59q-225 0 -408 100.5t-288 278.5t-105 398zM392 741q0 -204 133.5 -341t347.5 -137q213 0 346.5 137t133.5 341 t-133.5 342.5t-346.5 138.5q-142 0 -252.5 -64.5t-169.5 -174t-59 -242.5z" />
<glyph unicode="P" horiz-adv-x="1341" d="M154 0v1485h659q218 0 352 -139.5t134 -355.5t-134 -355.5t-352 -139.5h-346v-495h-313zM467 763h301q100 0 155.5 64.5t55.5 162.5t-55.5 162.5t-155.5 64.5h-301v-454z" />
<glyph unicode="Q" horiz-adv-x="1744" d="M72 741q0 221 105 400t288 279.5t408 100.5q168 0 316 -59t254.5 -162t168 -248t61.5 -311q0 -278 -205 -461h271l-1 -280h-840q-381 0 -603.5 202t-222.5 539zM392 741q0 -203 133.5 -337t347.5 -137h10q217 0 342 131q128 135 128 343q0 204 -133.5 342.5t-346.5 138.5 q-142 0 -252.5 -64.5t-169.5 -174t-59 -242.5z" />
<glyph unicode="R" horiz-adv-x="1404" d="M154 0v1485h701q218 0 346.5 -134.5t128.5 -351.5q0 -180 -92 -303.5t-255 -163.5l380 -532h-396l-327 513h-173v-513h-313zM467 780h331q96 0 154 62t58 157t-58 156.5t-154 61.5h-331v-437z" />
<glyph unicode="S" horiz-adv-x="1302" d="M101 71l67 289q87 -45 210 -76t244 -31q80 0 142.5 15t104.5 53t42 96q0 47 -26.5 82t-72 56.5t-104 39t-123 34.5t-129 37.5t-123 53.5t-104 77t-72 113.5t-26.5 158.5q0 99 34.5 178t91 129.5t134 84t158 47t168.5 13.5q257 0 458 -110l-59 -282q-81 44 -187 73.5 t-214 29.5q-73 0 -130 -14t-95 -48t-38 -86q0 -43 26.5 -75t71.5 -52.5t103.5 -37.5t123.5 -34.5t129.5 -38t123 -54t103.5 -77.5t71.5 -112t26.5 -155q0 -107 -37 -192t-97.5 -139t-143 -89t-168 -49.5t-178.5 -14.5q-140 0 -272.5 30.5t-233.5 76.5z" />
<glyph unicode="T" horiz-adv-x="1269" d="M11 1205l2 280h1247l-2 -280h-466v-1205h-313v1205h-468z" />
<glyph unicode="U" horiz-adv-x="1626" d="M154 611v874h314v-841q0 -105 29 -182t79.5 -119t109.5 -61t128 -19q68 0 126.5 19t108.5 61t79 119t29 182v841h314v-874q0 -304 -172.5 -475.5t-484.5 -171.5q-313 0 -486.5 171.5t-173.5 475.5z" />
<glyph unicode="V" horiz-adv-x="1550" d="M32 1485h356l386 -1076l387 1076h356l-610 -1485h-264z" />
<glyph unicode="W" horiz-adv-x="2154" d="M32 1485h356l237 -991h4l314 991h267l315 -991h4l236 991h357l-454 -1485h-264l-325 989h-4l-326 -989h-263z" />
<glyph unicode="X" horiz-adv-x="1452" d="M1 0l512 757l-484 728h398l300 -549l300 549h396l-484 -727l513 -758h-376l-349 579l-351 -579h-375z" />
<glyph unicode="Y" horiz-adv-x="1468" d="M32 1485h356l346 -724l347 724h356l-547 -1020v-465h-313v465z" />
<glyph unicode="Z" horiz-adv-x="1347" d="M73 0v260l781 957h-766l2 268h1147v-248l-767 -957h805l-6 -280h-1196z" />
<glyph unicode="[" horiz-adv-x="710" d="M205 -338v2016h453v-173h-205v-1669h205v-174h-453z" />
<glyph unicode="\" horiz-adv-x="905" d="M11 1536h253l651 -1638h-251z" />
<glyph unicode="]" horiz-adv-x="710" d="M52 -164h205v1669h-205v173h453v-2016h-453v174z" />
<glyph unicode="^" horiz-adv-x="1361" d="M164 614l390 922h253l391 -922h-251l-267 710l-264 -710h-252z" />
<glyph unicode="_" horiz-adv-x="1024" d="M0 -164h1024v-119h-1024v119z" />
<glyph unicode="`" d="M-51 1423l279 27l225 -334h-234z" />
<glyph unicode="a" horiz-adv-x="1171" d="M72 289q0 159 110 235t299 76q95 0 262 -9v29q0 80 -49.5 118t-156.5 38q-83 0 -194.5 -20.5t-179.5 -47.5l-10 237q70 26 203 47t235 21q120 0 210.5 -32.5t143 -89t78 -126.5t25.5 -152v-613h-292l-4 120h-4q-60 -78 -149 -114.5t-188 -36.5q-146 0 -242.5 83.5 t-96.5 236.5zM376 286q0 -58 40.5 -95.5t110.5 -37.5q39 0 76.5 14t71 43.5t56.5 81t28 119.5q-126 7 -163 7q-107 0 -163.5 -28t-56.5 -104z" />
<glyph unicode="b" horiz-adv-x="1282" d="M104 0v1526h304v-543l-3 -133h7q130 163 324 163q112 0 203.5 -41.5t149.5 -113.5t89.5 -165.5t31.5 -200.5q0 -144 -52.5 -260.5t-162 -189t-260.5 -72.5q-196 0 -327 165h-6v-135h-298zM400 492q0 -113 67 -187.5t181 -74.5q120 0 184 73t64 189t-64 189.5t-184 73.5 q-114 0 -181 -74.5t-67 -188.5z" />
<glyph unicode="c" horiz-adv-x="1071" d="M72 492q0 245 155.5 383t425.5 138q183 0 336 -58l-15 -263q-68 28 -159.5 45.5t-156.5 17.5q-139 0 -205.5 -68.5t-66.5 -194.5q0 -125 67 -193.5t207 -68.5q66 0 156 16t158 42l15 -262q-64 -24 -156.5 -40t-179.5 -16q-269 0 -425 139t-156 383z" />
<glyph unicode="d" horiz-adv-x="1282" d="M72 492q0 106 33.5 200.5t94 165.5t150.5 113t196 42q195 0 325 -163h6l-2 133v543h303v-1526h-297v135h-6q-131 -165 -327 -165q-108 0 -198.5 42t-151 113.5t-93.5 166t-33 200.5zM386 492q0 -113 68 -187.5t181 -74.5q114 0 180.5 74t66.5 188q0 113 -67 188t-180 75 t-181 -75t-68 -188z" />
<glyph unicode="e" horiz-adv-x="1132" d="M72 486q0 251 137 389t378 138q227 0 350 -136t123 -391v-78h-673q11 -182 291 -182q172 0 328 55l15 -264q-183 -47 -360 -47q-133 0 -237.5 28t-185 87.5t-123.5 160.5t-43 240zM378 601h384q-1 96 -52.5 141.5t-137.5 45.5q-84 0 -137 -51t-57 -136z" />
<glyph unicode="f" horiz-adv-x="759" d="M21 983h193v113q0 103 16 176t54.5 129.5t108 84t171.5 27.5q88 0 209 -18v-251q-62 13 -115 13q-77 0 -108.5 -40t-31.5 -134v-100h230l-2 -244h-228v-739h-304v739h-191z" />
<glyph unicode="g" horiz-adv-x="1282" d="M73 492q0 142 56 259.5t165.5 189.5t252.5 72q200 0 329 -163h6v133h297v-1007q0 -115 -34 -203t-89.5 -143t-134.5 -89.5t-161.5 -48t-178.5 -13.5q-222 0 -426 49l13 253q73 -20 187.5 -37.5t204.5 -17.5q315 0 316 239v170h-6q-130 -165 -324 -165q-141 0 -250 72 t-166 190t-57 260zM387 492q0 -113 67.5 -187.5t181.5 -74.5q113 0 180 74.5t67 187.5t-67 188t-180 75q-114 0 -181.5 -75t-67.5 -188z" />
<glyph unicode="h" horiz-adv-x="1204" d="M104 0v1526h304v-543l-6 -155h6q66 93 157.5 139t181.5 46q186 0 270 -105t84 -321v-587h-305v544q0 94 -40 152.5t-130 58.5q-101 0 -159.5 -78t-58.5 -210v-467h-304z" />
<glyph unicode="i" d="M91 1308q0 80 49.5 128t124.5 48q77 0 126 -48t49 -128t-49.5 -128.5t-125.5 -48.5q-81 0 -127.5 50t-46.5 127zM114 0v983h304v-983h-304z" />
<glyph unicode="j" d="M-128 -498l8 251q53 -13 112 -13q66 0 94 42t28 141v1060h303v-1079q0 -104 -15.5 -177t-53.5 -130t-107 -85t-170 -28q-77 0 -199 18zM92 1308q0 80 49.5 128t125.5 48q74 0 124 -48t50 -128t-50 -128.5t-124 -48.5q-80 0 -127.5 50.5t-47.5 126.5z" />
<glyph unicode="k" horiz-adv-x="1150" d="M104 0v1526h304v-923h40l300 380h369l-391 -440l404 -543h-378l-311 482h-33v-482h-304z" />
<glyph unicode="l" horiz-adv-x="550" d="M125 0v1526h303v-1526h-303z" />
<glyph unicode="m" horiz-adv-x="1826" d="M113 0v983h286l3 -155h6q132 185 336 185q121 0 187 -49t102 -152q72 105 168 153t195 48q178 0 252 -103.5t74 -322.5v-587h-304v544q0 47 -5.5 81t-21 65.5t-46 48t-76.5 16.5q-100 0 -149.5 -75.5t-50.5 -210.5v-469h-303v544q0 47 -5.5 81.5t-21 65.5t-46.5 47.5 t-77 16.5q-99 0 -148.5 -76.5t-49.5 -211.5v-467h-305z" />
<glyph unicode="n" horiz-adv-x="1204" d="M104 0v983h284l4 -155h5q152 185 352 185q180 0 266 -106t86 -320v-587h-305v544q0 94 -40 152.5t-130 58.5q-101 0 -159.5 -78t-58.5 -210v-467h-304z" />
<glyph unicode="o" horiz-adv-x="1230" d="M72 492q0 147 59 263t183.5 187t299.5 71q131 0 236 -40.5t171.5 -112t101.5 -165.5t35 -203t-35 -203t-101.5 -165.5t-171.5 -112.5t-236 -41q-132 0 -236.5 41t-170.5 112.5t-100.5 165.5t-34.5 203zM386 492q0 -116 56 -189t172 -73t172 73t56 189t-56 189.5 t-172 73.5t-172 -73.5t-56 -189.5z" />
<glyph unicode="p" horiz-adv-x="1282" d="M104 -492v1475h284l4 -154h5q130 184 338 184q115 0 206.5 -41.5t149.5 -113.5t88.5 -165.5t30.5 -200.5q0 -144 -52.5 -260.5t-162 -189t-259.5 -72.5q-194 0 -324 165h-7l3 -135v-492h-304zM400 492q0 -113 67 -187.5t181 -74.5q122 0 185 73t63 189t-63.5 189.5 t-184.5 73.5q-114 0 -181 -74.5t-67 -188.5z" />
<glyph unicode="q" horiz-adv-x="1282" d="M72 492q0 107 30.5 200.5t88.5 165.5t150 113.5t207 41.5q198 0 327 -163h6v133h297v-1475h-303v492l2 135h-6q-130 -165 -325 -165q-150 0 -259.5 72.5t-162 189t-52.5 260.5zM386 492q0 -116 63.5 -189t185.5 -73q113 0 180 74.5t67 187.5q0 114 -67 188.5t-180 74.5 q-122 0 -185.5 -73.5t-63.5 -189.5z" />
<glyph unicode="r" horiz-adv-x="833" d="M104 0v983h284l4 -155h6q109 185 292 185q61 0 125 -16l-13 -290q-71 23 -150 23q-129 0 -186.5 -66t-57.5 -197v-467h-304z" />
<glyph unicode="s" horiz-adv-x="1038" d="M77 35l50 262q73 -42 169 -67t179 -25q80 0 129 21t49 62q0 30 -31.5 49.5t-81.5 30t-111 20t-122 28t-111 46.5t-81.5 81.5t-31.5 127.5q0 170 116.5 256t315.5 86q212 0 405 -87l-76 -242q-60 39 -155 70t-167 31q-57 0 -91 -19.5t-34 -58.5q0 -26 24.5 -44t64.5 -27 t91.5 -20t104.5 -21.5t104.5 -32.5t91.5 -52t64.5 -81.5t24.5 -119.5q0 -93 -41.5 -161t-114 -105.5t-158.5 -55t-188 -17.5q-182 0 -388 65z" />
<glyph unicode="t" horiz-adv-x="831" d="M31 739l2 244h181v336h304v-336h251l-2 -244h-249v-335q0 -100 31 -138q28 -34 91 -34h14q72 5 122 19l4 -251q-140 -37 -231 -37q-175 0 -255 101t-80 321v354h-183z" />
<glyph unicode="u" horiz-adv-x="1181" d="M104 396v587h304v-542q0 -105 38.5 -159t133.5 -54q101 0 152.5 68t51.5 195v492h303v-983h-292l-3 135h-4q-131 -165 -321 -165q-194 0 -278.5 108.5t-84.5 317.5z" />
<glyph unicode="v" horiz-adv-x="1124" d="M11 983h334l217 -685l217 685h334l-398 -983h-306z" />
<glyph unicode="w" horiz-adv-x="1757" d="M11 983h334l178 -639h5l205 639h291l206 -639h4l178 639h334l-354 -983h-296l-215 634h-4l-215 -634h-298z" />
<glyph unicode="x" horiz-adv-x="1144" d="M11 0l392 490l-380 493h363l186 -289l188 289h363l-382 -493l395 -490h-367l-197 302l-194 -302h-367z" />
<glyph unicode="y" horiz-adv-x="1124" d="M11 983h334l227 -684l207 684h334l-398 -983l-174 -493h-336l221 486z" />
<glyph unicode="z" horiz-adv-x="1021" d="M70 0v203l488 536h-482l4 244h879v-203l-491 -536h511l-5 -244h-904z" />
<glyph unicode="{" horiz-adv-x="802" d="M82 584v172q50 0 85 14.5t54.5 37t30.5 62.5t13.5 76.5t2.5 93.5v344q0 50 7 90.5t26.5 80t51.5 65.5t85 42t124 16h159v-174h-49q-81 0 -118.5 -45.5t-37.5 -159.5v-300q0 -77 -13 -134t-31.5 -90t-50 -55t-58 -31t-65.5 -17v-4q39 -8 65.5 -17t58 -31.5t50 -55.5 t31.5 -90t13 -134v-299q0 -114 37.5 -159.5t118.5 -45.5h49v-174h-159q-71 0 -124 16t-85 42t-51.5 65.5t-26.5 80t-7 90.5v343q0 47 -2 78.5t-8 67.5t-18.5 58.5t-32.5 42.5t-51.5 29t-73.5 9z" />
<glyph unicode="|" horiz-adv-x="583" d="M205 -139v1806h174v-1806h-174z" />
<glyph unicode="}" horiz-adv-x="802" d="M82 -164h49q81 0 118.5 45t37.5 159v300q0 77 13 134t31.5 90t50 55.5t58 31.5t65.5 17v4q-39 8 -65.5 17t-58 31t-50 55t-31.5 90t-13 134v300q0 114 -37.5 159.5t-118.5 45.5h-49v174h159q71 0 123.5 -16t84.5 -42.5t51.5 -66t26.5 -80t7 -90.5v-343q0 -47 2 -78.5 t8 -67t19 -58.5t33 -42.5t51.5 -28.5t73.5 -9v-172q-50 0 -85.5 -15t-55 -37.5t-30 -62.5t-13.5 -77t-3 -93v-343q0 -50 -7 -90.5t-26.5 -80t-51.5 -65.5t-84.5 -42t-123.5 -16h-159v174z" />
<glyph unicode="~" horiz-adv-x="1384" d="M184 532q21 50 49 97t69 96.5t95.5 79.5t113.5 30q46 0 91 -19t80.5 -46t68.5 -54t67 -46t63 -19q68 0 153 173l166 -91q-21 -54 -49 -103t-68 -96.5t-93.5 -76t-112.5 -28.5q-57 0 -111.5 28.5t-90.5 62.5t-81.5 62.5t-86.5 28.5q-39 0 -74.5 -43t-80.5 -128z" />
<glyph unicode="&#xa1;" horiz-adv-x="886" d="M257 820q0 80 51.5 134t136.5 54q84 0 135 -54t51 -134q0 -81 -51 -135.5t-135 -54.5q-85 0 -136.5 54.5t-51.5 135.5zM291 -507l12 1019h283l10 -1019h-305z" />
<glyph unicode="&#xa2;" horiz-adv-x="1050" d="M72 741q0 211 129 348.5t348 165.5v230h175v-223q137 -12 265 -56l-16 -264q-121 46 -249 58v-518q114 9 249 57l16 -264q-120 -44 -265 -54v-221h-175v226q-219 30 -348 167t-129 348zM386 741q0 -91 42 -158t121 -88v493q-79 -21 -121 -88.5t-42 -158.5z" />
<glyph unicode="&#xa3;" horiz-adv-x="1214" d="M61 0v274h122v407h-120v174h120v163q0 244 119 365.5t387 121.5q190 0 399 -78l-21 -281q-206 79 -377 79q-115 0 -159 -48t-44 -159v-163h439l-8 -174h-431v-407h624v-274h-1050z" />
<glyph unicode="&#xa4;" horiz-adv-x="1175" d="M51 285l146 145q-107 135 -107 311q0 174 109 312l-148 147l78 78l145 -148q136 111 314 111q175 0 311 -111l148 148l77 -78l-147 -147q110 -135 110 -312q0 -178 -110 -313l147 -143l-77 -78l-146 145q-133 -108 -313 -108q-177 0 -314 108l-145 -145zM280 741 q0 -128 90 -218t218 -90q130 0 220 90t90 218q0 130 -90 220.5t-220 90.5q-128 0 -218 -90.5t-90 -220.5z" />
<glyph unicode="&#xa5;" horiz-adv-x="1228" d="M-48 1485h356l306 -742l306 742h357l-419 -832h240l-17 -174h-310v-124h327l-17 -175h-310v-180h-313v180h-328l17 175h311v124h-328l17 174h224z" />
<glyph unicode="&#xa6;" horiz-adv-x="583" d="M205 -139v698h174v-698h-174zM205 969v698h174v-698h-174z" />
<glyph unicode="&#xa7;" horiz-adv-x="1251" d="M154 543q0 118 59 213t157 153q-157 96 -157 271q0 109 59.5 186t155 112t217.5 35q101 0 204 -16.5t170 -40.5l-32 -253q-66 29 -162.5 48t-163.5 19q-58 0 -96 -18t-38 -56q0 -24 24.5 -44t64.5 -35t91.5 -33t104.5 -37t104.5 -49t91.5 -67t64.5 -93t24.5 -124 q0 -116 -60 -211t-156 -155q157 -98 157 -268q0 -83 -34 -148t-93 -105.5t-136.5 -61.5t-168.5 -21q-102 0 -204.5 16.5t-169.5 40.5l32 254q66 -29 162.5 -48t163.5 -19q134 0 134 73q0 27 -31.5 49t-81.5 40t-111 38t-122 49t-111 67.5t-81.5 100t-31.5 138.5zM449 631 q0 -29 13 -54t32 -42.5t52 -35.5t60.5 -30t71.5 -29q4 -1 6 -2t5.5 -2.5t6.5 -2.5q106 75 106 193q0 19 -4.5 35.5t-17 32t-22 27t-33 25t-35.5 21t-43.5 21t-43.5 18.5t-48 19q-106 -73 -106 -194z" />
<glyph unicode="&#xa8;" d="M-132 1252q0 64 45.5 109.5t109.5 45.5t110.5 -45.5t46.5 -109.5t-46.5 -110.5t-110.5 -46.5t-109.5 46.5t-45.5 110.5zM352 1252q0 64 45.5 109.5t109.5 45.5t110.5 -45.5t46.5 -109.5t-46.5 -110.5t-110.5 -46.5t-109.5 46.5t-45.5 110.5z" />
<glyph unicode="&#xa9;" horiz-adv-x="1640" d="M82 741q0 158 61 301.5t164 247t246 165t301 61.5t301 -61.5t247 -165t165 -247t61 -301.5t-61 -301t-165 -246t-247 -164t-301 -61t-301 61t-246 164t-164 246t-61 301zM211 741q0 -132 50.5 -251t136.5 -204.5t205 -136t251 -50.5t251 50.5t205.5 136t137.5 205 t51 250.5q0 132 -51 251t-137.5 205.5t-205.5 137.5t-251 51t-251 -51t-205 -137.5t-136.5 -205.5t-50.5 -251zM406 741q0 113 38.5 202.5t105.5 145.5t155.5 85.5t192.5 29.5q139 0 286 -43l-20 -170q-149 43 -266 43q-136 0 -219.5 -73.5t-83.5 -219.5q0 -144 83.5 -217 t219.5 -73q117 0 266 43l20 -170q-151 -44 -286 -44q-104 0 -192.5 29t-156 85t-105.5 145t-38 202z" />
<glyph unicode="&#xaa;" horiz-adv-x="841" d="M61 1026q0 103 68.5 168t171.5 65q131 0 231 -107v88q0 118 -146 118q-54 0 -125.5 -15.5t-122.5 -35.5l-21 167q51 19 143.5 33t165.5 14q83 0 145.5 -22.5t99.5 -61.5t55.5 -87.5t18.5 -105.5v-199q0 -172 14 -232h-216q-6 41 -6 91h-4q-95 -113 -232 -113 q-103 0 -171.5 65.5t-68.5 169.5zM90 538v152h655v-152h-655zM275 1026q0 -40 28.5 -65t78.5 -25q49 0 91 25.5t64 64.5q-22 38 -64 63.5t-91 25.5t-78 -25t-29 -64z" />
<glyph unicode="&#xab;" horiz-adv-x="1302" d="M123 492l338 483l198 -128l-252 -355l252 -355l-198 -128zM602 492l341 483l195 -128l-252 -355l252 -355l-195 -128z" />
<glyph unicode="&#xac;" horiz-adv-x="1400" d="M164 673v171h1073v-563h-171v392h-902z" />
<glyph unicode="&#xad;" horiz-adv-x="763" d="M92 389v262h580v-262h-580z" />
<glyph unicode="&#xae;" horiz-adv-x="1640" d="M82 741q0 158 61 301.5t164 247t246 165t301 61.5t301 -61.5t247 -165t165 -247t61 -301.5t-61 -301t-165 -246t-247 -164t-301 -61t-301 61t-246 164t-164 246t-61 301zM211 741q0 -132 50.5 -251t136.5 -204.5t205 -136t251 -50.5t251 50.5t205.5 136t137.5 205 t51 250.5q0 132 -51 251t-137.5 205.5t-205.5 137.5t-251 51t-251 -51t-205 -137.5t-136.5 -205.5t-50.5 -251zM530 297v891h415q126 0 203 -84.5t77 -213.5q0 -106 -57 -182t-153 -96l228 -315h-235l-194 302h-102v-302h-182zM712 755h198q54 0 89 40.5t35 94.5 q0 56 -35 96.5t-89 40.5h-198v-272z" />
<glyph unicode="&#xaf;" d="M-36 1150v185h604v-185h-604z" />
<glyph unicode="&#xb0;" horiz-adv-x="837" d="M73 1173q0 145 100.5 244t246.5 99t245.5 -99t99.5 -244q0 -148 -99.5 -249t-245.5 -101t-246.5 101t-100.5 249zM207 1173q0 -91 62 -153.5t151 -62.5t150 62.5t61 153.5q0 88 -61 148.5t-150 60.5t-151 -60.5t-62 -148.5z" />
<glyph unicode="&#xb1;" horiz-adv-x="1366" d="M164 62v207h1069v-207h-1069zM164 668v208h430v328h209v-328h430v-208h-430v-328h-209v328h-430z" />
<glyph unicode="&#xb2;" horiz-adv-x="835" d="M74 901v212q244 154 343.5 248t99.5 160q0 74 -163 74q-140 0 -249 -26l-25 218q131 29 304 29q75 0 138 -12t119 -40.5t88 -83t32 -130.5q0 -121 -96.5 -222.5t-313.5 -214.5h410l-8 -212h-679z" />
<glyph unicode="&#xb3;" horiz-adv-x="858" d="M80 907l28 221q162 -29 290 -29q72 0 107.5 18t35.5 60q0 29 -14 47.5t-40.5 26t-50 10t-58.5 2.5h-186l-13 198h221q37 0 60.5 3t44.5 18t21 43q0 17 -5.5 30t-20 20t-23.5 11.5t-34 6t-33 1.5h-37q-91 0 -253 -25l-24 217q157 30 303 30q72 0 132.5 -10t116 -33.5 t87 -68t31.5 -107.5q0 -81 -45 -141.5t-127 -94.5v-6q84 -23 137.5 -84t53.5 -147q0 -69 -36 -119t-98 -77t-130 -39t-145 -12q-142 0 -296 30z" />
<glyph unicode="&#xb4;" d="M97 1116l226 334l277 -27l-269 -307h-234z" />
<glyph unicode="&#xb6;" horiz-adv-x="1361" d="M164 516q0 200 126.5 333.5t338.5 133.5h651v-173h-153v-1302h-248v543h-250q-107 0 -195 36.5t-147 99.5t-91 147.5t-32 181.5z" />
<glyph unicode="&#xb7;" horiz-adv-x="620" d="M124 580q0 81 51 136t135 55q85 0 136 -55t51 -136q0 -80 -51 -134t-136 -54q-84 0 -135 54t-51 134z" />
<glyph unicode="&#xb8;" d="M24 -417l14 93q104 -38 180 -38q59 0 96.5 21.5t37.5 59.5q0 39 -38 59.5t-86 20.5q-40 0 -107 -18l-19 39l119 180h113l-103 -134l3 -2q46 14 84 14q77 0 129.5 -42t52.5 -119q0 -60 -41.5 -102.5t-99.5 -60.5t-123 -18q-102 0 -212 47z" />
<glyph unicode="&#xb9;" horiz-adv-x="667" d="M43 1583l278 209h211v-891h-230v641h-2l-141 -109z" />
<glyph unicode="&#xba;" horiz-adv-x="882" d="M61 1157q0 156 104 260t278 104q171 0 274 -104t103 -260q0 -157 -103 -261.5t-274 -104.5q-173 0 -277.5 104.5t-104.5 261.5zM90 538v152h700v-152h-700zM282 1157q0 -77 43.5 -130.5t117.5 -53.5q72 0 115 53.5t43 130.5t-43 130.5t-115 53.5q-74 0 -117.5 -53.5 t-43.5 -130.5z" />
<glyph unicode="&#xbb;" horiz-adv-x="1302" d="M164 137l252 355l-252 355l197 128l339 -483l-339 -483zM643 137l252 355l-252 355l198 128l338 -483l-338 -483z" />
<glyph unicode="&#xbc;" horiz-adv-x="1908" d="M43 1276l278 209h211v-891h-230v640h-2l-141 -108zM329 40l1051 1504l143 -99l-1051 -1504zM1114 153v196l401 542h230v-542h135l-15 -196h-120v-153h-229v153h-402zM1357 349h159v202h-5z" />
<glyph unicode="&#xbd;" horiz-adv-x="2019" d="M43 1276l278 209h211v-891h-230v640h-2l-141 -108zM329 40l1051 1504l143 -99l-1051 -1504zM1259 0v212q245 154 344.5 247t99.5 160q0 74 -162 74q-142 0 -251 -26l-24 218q135 30 306 30q59 0 109.5 -7t100.5 -25.5t85.5 -47.5t57 -76.5t21.5 -109.5 q0 -121 -96.5 -222.5t-313.5 -214.5h410l-8 -212h-679z" />
<glyph unicode="&#xbe;" horiz-adv-x="2103" d="M80 599l28 222q168 -30 290 -30q72 0 107.5 18.5t35.5 60.5q0 29 -14 47.5t-40.5 26t-50 10t-58.5 2.5h-186l-13 198h221q27 0 45.5 1.5t39 7.5t31 19.5t10.5 34.5q0 17 -5.5 30t-19.5 20.5t-24.5 11.5t-33.5 6t-33.5 2h-36.5q-84 0 -253 -26l-24 218q157 30 303 30 q72 0 132.5 -10t116 -33.5t87 -68t31.5 -107.5q0 -81 -45 -142t-127 -95v-5q84 -23 137.5 -84t53.5 -147q0 -69 -36 -119t-98 -77t-130 -39t-145 -12q-147 0 -296 29zM521 40l1050 1504l145 -99l-1051 -1504zM1310 153v196l402 542h229v-542h134l-14 -196h-120v-153h-231 v153h-400zM1552 349h158v202h-4z" />
<glyph unicode="&#xbf;" horiz-adv-x="1236" d="M113 -130q0 79 25 142t65 105t88.5 77.5t97 67.5t89 65.5t66.5 80.5t27 104h285q0 -90 -23.5 -160.5t-60.5 -114.5t-82 -79t-90 -61.5t-82 -52.5t-60.5 -62.5t-23.5 -82.5q0 -153 258 -153q108 0 226 21.5t184 46.5l15 -296q-177 -62 -453 -62q-121 0 -218.5 23 t-173.5 71t-117.5 129.5t-41.5 190.5zM526 819q0 80 52 134.5t137 54.5q84 0 135 -54.5t51 -134.5t-51 -134.5t-135 -54.5q-85 0 -137 54.5t-52 134.5z" />
<glyph unicode="&#xc0;" horiz-adv-x="1529" d="M1 0l633 1485h264l632 -1485h-356l-102 273h-614l-101 -273h-356zM387 1868l277 26l218 -292h-236zM559 544h412l-206 553z" />
<glyph unicode="&#xc1;" horiz-adv-x="1529" d="M1 0l633 1485h264l632 -1485h-356l-102 273h-614l-101 -273h-356zM559 544h412l-206 553zM650 1602l219 292l277 -26l-260 -266h-236z" />
<glyph unicode="&#xc2;" horiz-adv-x="1529" d="M1 0l633 1485h264l632 -1485h-356l-102 273h-614l-101 -273h-356zM396 1602l228 285h281l228 -285h-236l-130 153h-4l-133 -153h-234zM559 544h412l-206 553z" />
<glyph unicode="&#xc3;" horiz-adv-x="1529" d="M1 0l633 1485h264l632 -1485h-356l-102 273h-614l-101 -273h-356zM421 1597q0 99 64 188t160 89q37 0 74 -15t61.5 -33.5t52.5 -33.5t50 -15q36 0 60.5 30.5t27.5 66.5h137q0 -107 -58 -192t-152 -85q-48 0 -94 24.5t-84.5 49t-67.5 24.5q-39 0 -65 -29.5t-31 -68.5h-135 zM559 544h412l-206 553z" />
<glyph unicode="&#xc4;" horiz-adv-x="1529" d="M1 0l633 1485h264l632 -1485h-356l-102 273h-614l-101 -273h-356zM367 1747q0 64 45.5 109t109.5 45t110.5 -45.5t46.5 -108.5q0 -65 -46.5 -110.5t-110.5 -45.5t-109.5 45.5t-45.5 110.5zM559 544h412l-206 553zM852 1747q0 64 45.5 109t109.5 45t110.5 -45.5 t46.5 -108.5q0 -65 -46.5 -110.5t-110.5 -45.5t-109.5 45.5t-45.5 110.5z" />
<glyph unicode="&#xc5;" horiz-adv-x="1529" d="M1 0l633 1485h264l632 -1485h-356l-102 273h-614l-101 -273h-356zM552 1823q0 86 62 151.5t149 65.5q88 0 151 -65.5t63 -154.5t-63 -154t-151 -65t-149.5 67t-61.5 155zM559 544h412l-206 553zM655 1820q0 -50 31.5 -84t78.5 -34q49 0 80 35t31 86q0 48 -31 82t-80 34 q-48 0 -79 -35t-31 -84z" />
<glyph unicode="&#xc6;" horiz-adv-x="2256" d="M1 0l940 1485h1162v-280h-705v-320h644l-2 -280h-642v-325h736v-280h-1049v280h-556l-165 -280h-363zM690 551h395v654h-8z" />
<glyph unicode="&#xc7;" horiz-adv-x="1400" d="M72 741q0 198 64 350t178 244.5t264 139t330 46.5q222 0 444 -66l-8 -290q-98 31 -218.5 49t-218.5 18q-91 0 -167.5 -16.5t-142 -53t-110 -93t-70 -139.5t-25.5 -189q0 -131 38 -227.5t109 -152.5t162 -82t207 -26q99 0 219 18t217 49l8 -290q-209 -63 -423 -66l-75 -98 l3 -2q45 14 84 14q77 0 129.5 -42t52.5 -119q0 -60 -41.5 -102.5t-99.5 -60.5t-123 -18q-102 0 -212 47l14 93q104 -38 180 -38q59 0 96.5 21.5t37.5 59.5q0 39 -38 59.5t-86 20.5q-39 0 -106 -18l-20 39l97 147q-131 9 -242.5 42.5t-206 96t-161 151t-103.5 211.5t-37 273z " />
<glyph unicode="&#xc8;" horiz-adv-x="1347" d="M154 0v1485h1061v-280h-748v-324h686l-4 -280h-682v-321h778v-280h-1091zM308 1868l277 26l218 -292h-236z" />
<glyph unicode="&#xc9;" horiz-adv-x="1347" d="M154 0v1485h1061v-280h-748v-324h686l-4 -280h-682v-321h778v-280h-1091zM571 1602l218 292l277 -26l-259 -266h-236z" />
<glyph unicode="&#xca;" horiz-adv-x="1347" d="M154 0v1485h1061v-280h-748v-324h686l-4 -280h-682v-321h778v-280h-1091zM317 1602l228 285h281l227 -285h-235l-131 153h-4l-132 -153h-234z" />
<glyph unicode="&#xcb;" horiz-adv-x="1347" d="M154 0v1485h1061v-280h-748v-324h686l-4 -280h-682v-321h778v-280h-1091zM288 1747q0 64 45.5 109t109.5 45t110.5 -45.5t46.5 -108.5q0 -65 -46.5 -110.5t-110.5 -45.5t-109.5 45.5t-45.5 110.5zM772 1747q0 64 45.5 109t109.5 45t110.5 -45.5t46.5 -108.5 q0 -65 -46.5 -110.5t-110.5 -45.5t-109.5 45.5t-45.5 110.5z" />
<glyph unicode="&#xcc;" horiz-adv-x="620" d="M-68 1868l277 26l219 -292h-236zM154 0v1485h313v-1485h-313z" />
<glyph unicode="&#xcd;" horiz-adv-x="620" d="M154 0v1485h313v-1485h-313zM196 1602l218 292l277 -26l-259 -266h-236z" />
<glyph unicode="&#xce;" horiz-adv-x="620" d="M-59 1602l228 285h281l228 -285h-236l-130 153h-4l-133 -153h-234zM154 0v1485h313v-1485h-313z" />
<glyph unicode="&#xcf;" horiz-adv-x="620" d="M-88 1747q0 64 46 109t110 45t110 -45t46 -109q0 -65 -46 -110.5t-110 -45.5t-110 45.5t-46 110.5zM154 0v1485h313v-1485h-313zM397 1747q0 64 45.5 109t109.5 45t110.5 -45.5t46.5 -108.5q0 -65 -46.5 -110.5t-110.5 -45.5t-109.5 45.5t-45.5 110.5z" />
<glyph unicode="&#xd0;" horiz-adv-x="1583" d="M1 638v207h153v640h572q242 0 419 -82.5t277 -251.5t100 -410q0 -181 -57 -322.5t-161.5 -233t-250.5 -138.5t-327 -47h-572v638h-153zM467 268h259q236 0 356 109t120 364t-120 365.5t-356 110.5h-259v-372h363v-207h-363v-370z" />
<glyph unicode="&#xd1;" horiz-adv-x="1679" d="M154 0v1485h346l709 -1006h4l-3 1006h316v-1485h-346l-709 1006h-4l3 -1006h-316zM496 1597q0 99 64 188t160 89q37 0 74 -15t61.5 -33.5t52.5 -33.5t50 -15q36 0 61 30.5t28 66.5h137q0 -107 -58 -192t-152 -85q-48 0 -94 24.5t-84.5 49t-67.5 24.5q-39 0 -65 -29.5 t-31 -68.5h-136z" />
<glyph unicode="&#xd2;" horiz-adv-x="1744" d="M72 741q0 221 105 400t288 279.5t408 100.5q168 0 316 -59t254.5 -162t168 -248t61.5 -311q0 -165 -61.5 -309.5t-168 -247t-254.5 -161.5t-316 -59q-225 0 -408 100.5t-288 278.5t-105 398zM392 741q0 -204 133.5 -341t347.5 -137q213 0 346.5 137t133.5 341 t-133.5 342.5t-346.5 138.5q-142 0 -252.5 -64.5t-169.5 -174t-59 -242.5zM495 1868l277 26l218 -292h-235z" />
<glyph unicode="&#xd3;" horiz-adv-x="1744" d="M72 741q0 221 105 400t288 279.5t408 100.5q168 0 316 -59t254.5 -162t168 -248t61.5 -311q0 -165 -61.5 -309.5t-168 -247t-254.5 -161.5t-316 -59q-225 0 -408 100.5t-288 278.5t-105 398zM392 741q0 -204 133.5 -341t347.5 -137q213 0 346.5 137t133.5 341 t-133.5 342.5t-346.5 138.5q-142 0 -252.5 -64.5t-169.5 -174t-59 -242.5zM759 1602l218 292l277 -26l-259 -266h-236z" />
<glyph unicode="&#xd4;" horiz-adv-x="1744" d="M72 741q0 221 105 400t288 279.5t408 100.5q168 0 316 -59t254.5 -162t168 -248t61.5 -311q0 -165 -61.5 -309.5t-168 -247t-254.5 -161.5t-316 -59q-225 0 -408 100.5t-288 278.5t-105 398zM392 741q0 -204 133.5 -341t347.5 -137q213 0 346.5 137t133.5 341 t-133.5 342.5t-346.5 138.5q-142 0 -252.5 -64.5t-169.5 -174t-59 -242.5zM504 1602l228 285h281l228 -285h-236l-130 153h-4l-133 -153h-234z" />
<glyph unicode="&#xd5;" horiz-adv-x="1744" d="M72 741q0 221 105 400t288 279.5t408 100.5q168 0 316 -59t254.5 -162t168 -248t61.5 -311q0 -165 -61.5 -309.5t-168 -247t-254.5 -161.5t-316 -59q-225 0 -408 100.5t-288 278.5t-105 398zM392 741q0 -204 133.5 -341t347.5 -137q213 0 346.5 137t133.5 341 t-133.5 342.5t-346.5 138.5q-142 0 -252.5 -64.5t-169.5 -174t-59 -242.5zM529 1597q0 99 64 188t160 89q37 0 74 -15t61.5 -33.5t52.5 -33.5t50 -15q36 0 60.5 30.5t27.5 66.5h137q0 -107 -58 -192t-152 -85q-48 0 -94 24.5t-84.5 49t-67.5 24.5q-39 0 -65 -29.5t-31 -68.5 h-135z" />
<glyph unicode="&#xd6;" horiz-adv-x="1744" d="M72 741q0 221 105 400t288 279.5t408 100.5q168 0 316 -59t254.5 -162t168 -248t61.5 -311q0 -165 -61.5 -309.5t-168 -247t-254.5 -161.5t-316 -59q-225 0 -408 100.5t-288 278.5t-105 398zM392 741q0 -204 133.5 -341t347.5 -137q213 0 346.5 137t133.5 341 t-133.5 342.5t-346.5 138.5q-142 0 -252.5 -64.5t-169.5 -174t-59 -242.5zM475 1747q0 64 46 109t110 45t110 -45t46 -109q0 -65 -46 -110.5t-110 -45.5t-110 45.5t-46 110.5zM960 1747q0 64 45.5 109t109.5 45t110.5 -45.5t46.5 -108.5q0 -65 -46.5 -110.5t-110.5 -45.5 t-109.5 45.5t-45.5 110.5z" />
<glyph unicode="&#xd7;" horiz-adv-x="1361" d="M202 1018l146 148l349 -350l350 350l146 -147l-350 -350l350 -348l-146 -146l-350 348l-348 -348l-146 146l348 348z" />
<glyph unicode="&#xd8;" horiz-adv-x="1744" d="M72 741q0 221 105 400t288 279.5t408 100.5q257 0 458 -132l150 174l90 -75l-147 -171q118 -107 183.5 -255.5t65.5 -320.5q0 -165 -61.5 -309.5t-168 -247t-254.5 -161.5t-316 -59q-272 0 -481 147l-149 -173l-91 76l149 173q-109 106 -169 248t-60 306zM392 741 q0 -186 112 -317l626 730q-114 68 -257 68q-142 0 -252.5 -64.5t-169.5 -174t-59 -242.5zM592 345q120 -82 281 -82q213 0 346.5 137t133.5 341q0 203 -131 340z" />
<glyph unicode="&#xd9;" horiz-adv-x="1626" d="M154 611v874h314v-841q0 -105 29 -182t79.5 -119t109.5 -61t128 -19q68 0 126.5 19t108.5 61t79 119t29 182v841h314v-874q0 -304 -172.5 -475.5t-484.5 -171.5q-313 0 -486.5 171.5t-173.5 475.5zM435 1868l277 26l219 -292h-236z" />
<glyph unicode="&#xda;" horiz-adv-x="1626" d="M154 611v874h314v-841q0 -105 29 -182t79.5 -119t109.5 -61t128 -19q68 0 126.5 19t108.5 61t79 119t29 182v841h314v-874q0 -304 -172.5 -475.5t-484.5 -171.5q-313 0 -486.5 171.5t-173.5 475.5zM699 1602l218 292l277 -26l-259 -266h-236z" />
<glyph unicode="&#xdb;" horiz-adv-x="1626" d="M154 611v874h314v-841q0 -105 29 -182t79.5 -119t109.5 -61t128 -19q68 0 126.5 19t108.5 61t79 119t29 182v841h314v-874q0 -304 -172.5 -475.5t-484.5 -171.5q-313 0 -486.5 171.5t-173.5 475.5zM444 1602l228 285h281l228 -285h-236l-130 153h-4l-132 -153h-235z" />
<glyph unicode="&#xdc;" horiz-adv-x="1626" d="M154 611v874h314v-841q0 -105 29 -182t79.5 -119t109.5 -61t128 -19q68 0 126.5 19t108.5 61t79 119t29 182v841h314v-874q0 -304 -172.5 -475.5t-484.5 -171.5q-313 0 -486.5 171.5t-173.5 475.5zM415 1747q0 64 46 109t110 45t110 -45t46 -109q0 -65 -46 -110.5 t-110 -45.5t-110 45.5t-46 110.5zM900 1747q0 64 45.5 109t109.5 45t110.5 -45.5t46.5 -108.5q0 -65 -46.5 -110.5t-110.5 -45.5t-109.5 45.5t-45.5 110.5z" />
<glyph unicode="&#xdd;" horiz-adv-x="1468" d="M32 1485h356l346 -724l347 724h356l-547 -1020v-465h-313v465zM619 1602l218 292l277 -26l-259 -266h-236z" />
<glyph unicode="&#xde;" horiz-adv-x="1290" d="M149 0v1485h316v-292h223q549 0 549 -441q0 -446 -535 -446h-237v-306h-316zM465 574h216q45 0 84 9t72 28.5t52 55.5t19 85q0 173 -275 173h-168v-351z" />
<glyph unicode="&#xdf;" horiz-adv-x="1290" d="M109 0v1029q0 103 33 190.5t96.5 155t165.5 106t231 38.5q108 0 200 -25t163 -73.5t111 -126t40 -175.5q0 -131 -57 -210t-180 -155q348 -79 348 -377q0 -190 -137 -299t-367 -109q-108 0 -217 31l14 253q83 -44 180 -44q89 0 148.5 50t59.5 143q0 105 -74 173t-237 79 v193q46 4 84.5 17.5t72.5 40.5t53.5 73t19.5 108q0 34 -12 66.5t-37 62t-70 47.5t-105 18q-112 0 -167 -73t-55 -194v-1013h-305z" />
<glyph unicode="&#xe0;" horiz-adv-x="1171" d="M72 289q0 159 110 235t299 76q95 0 262 -9v29q0 80 -49.5 118t-156.5 38q-83 0 -194.5 -20.5t-179.5 -47.5l-10 237q70 26 203 47t235 21q120 0 210.5 -32.5t143 -89t78 -126.5t25.5 -152v-613h-292l-4 120h-4q-60 -78 -149 -114.5t-188 -36.5q-146 0 -242.5 83.5 t-96.5 236.5zM192 1423l279 27l225 -334h-234zM376 286q0 -58 40.5 -95.5t110.5 -37.5q39 0 76.5 14t71 43.5t56.5 81t28 119.5q-126 7 -163 7q-107 0 -163.5 -28t-56.5 -104z" />
<glyph unicode="&#xe1;" horiz-adv-x="1171" d="M72 289q0 159 110 235t299 76q95 0 262 -9v29q0 80 -49.5 118t-156.5 38q-83 0 -194.5 -20.5t-179.5 -47.5l-10 237q70 26 203 47t235 21q120 0 210.5 -32.5t143 -89t78 -126.5t25.5 -152v-613h-292l-4 120h-4q-60 -78 -149 -114.5t-188 -36.5q-146 0 -242.5 83.5 t-96.5 236.5zM376 286q0 -58 40.5 -95.5t110.5 -37.5q39 0 76.5 14t71 43.5t56.5 81t28 119.5q-126 7 -163 7q-107 0 -163.5 -28t-56.5 -104zM471 1116l226 334l277 -27l-269 -307h-234z" />
<glyph unicode="&#xe2;" horiz-adv-x="1171" d="M72 289q0 159 110 235t299 76q95 0 262 -9v29q0 80 -49.5 118t-156.5 38q-83 0 -194.5 -20.5t-179.5 -47.5l-10 237q70 26 203 47t235 21q120 0 210.5 -32.5t143 -89t78 -126.5t25.5 -152v-613h-292l-4 120h-4q-60 -78 -149 -114.5t-188 -36.5q-146 0 -242.5 83.5 t-96.5 236.5zM217 1116l228 307h280l228 -307h-235l-131 164h-4l-132 -164h-234zM376 286q0 -58 40.5 -95.5t110.5 -37.5q39 0 76.5 14t71 43.5t56.5 81t28 119.5q-126 7 -163 7q-107 0 -163.5 -28t-56.5 -104z" />
<glyph unicode="&#xe3;" horiz-adv-x="1171" d="M72 289q0 159 110 235t299 76q95 0 262 -9v29q0 80 -49.5 118t-156.5 38q-83 0 -194.5 -20.5t-179.5 -47.5l-10 237q70 26 203 47t235 21q120 0 210.5 -32.5t143 -89t78 -126.5t25.5 -152v-613h-292l-4 120h-4q-60 -78 -149 -114.5t-188 -36.5q-146 0 -242.5 83.5 t-96.5 236.5zM241 1120q0 63 26.5 129.5t79.5 115.5t118 49q37 0 74 -18.5t61.5 -40t52.5 -40t50 -18.5q35 0 60 39.5t29 77.5h137q0 -68 -24 -134t-73.5 -113t-112.5 -47q-38 0 -75.5 18t-62.5 40t-54.5 40t-53.5 18q-38 0 -65 -37.5t-32 -78.5h-135zM376 286 q0 -58 40.5 -95.5t110.5 -37.5q39 0 76.5 14t71 43.5t56.5 81t28 119.5q-126 7 -163 7q-107 0 -163.5 -28t-56.5 -104z" />
<glyph unicode="&#xe4;" horiz-adv-x="1171" d="M72 289q0 159 110 235t299 76q95 0 262 -9v29q0 80 -49.5 118t-156.5 38q-83 0 -194.5 -20.5t-179.5 -47.5l-10 237q70 26 203 47t235 21q120 0 210.5 -32.5t143 -89t78 -126.5t25.5 -152v-613h-292l-4 120h-4q-60 -78 -149 -114.5t-188 -36.5q-146 0 -242.5 83.5 t-96.5 236.5zM188 1252q0 64 45.5 109.5t109.5 45.5t110.5 -45.5t46.5 -109.5t-46.5 -110.5t-110.5 -46.5t-109.5 46.5t-45.5 110.5zM376 286q0 -58 40.5 -95.5t110.5 -37.5q39 0 76.5 14t71 43.5t56.5 81t28 119.5q-126 7 -163 7q-107 0 -163.5 -28t-56.5 -104zM672 1252 q0 64 45.5 109.5t109.5 45.5t110.5 -45.5t46.5 -109.5t-46.5 -110.5t-110.5 -46.5t-109.5 46.5t-45.5 110.5z" />
<glyph unicode="&#xe5;" horiz-adv-x="1171" d="M72 289q0 159 110 235t299 76q95 0 262 -9v29q0 80 -49.5 118t-156.5 38q-83 0 -194.5 -20.5t-179.5 -47.5l-10 237q70 26 203 47t235 21q120 0 210.5 -32.5t143 -89t78 -126.5t25.5 -152v-613h-292l-4 120h-4q-60 -78 -149 -114.5t-188 -36.5q-146 0 -242.5 83.5 t-96.5 236.5zM372 1276q0 87 62.5 153.5t149.5 66.5q89 0 152.5 -66t63.5 -156q0 -88 -63.5 -153t-152.5 -65q-88 0 -150 66t-62 154zM376 286q0 -58 40.5 -95.5t110.5 -37.5q39 0 76.5 14t71 43.5t56.5 81t28 119.5q-126 7 -163 7q-107 0 -163.5 -28t-56.5 -104zM475 1274 q0 -50 32 -83.5t79 -33.5q49 0 79.5 34.5t30.5 84.5q0 48 -31 82t-79 34t-79.5 -34.5t-31.5 -83.5z" />
<glyph unicode="&#xe6;" horiz-adv-x="1781" d="M72 289q0 159 110 235t299 76q88 0 255 -9v29q0 80 -48.5 118t-151.5 38q-81 0 -193 -20.5t-180 -47.5l-10 237q70 26 203 47t234 21q232 0 326 -129q115 129 320 129q228 0 351 -136t123 -391v-78h-670q11 -182 288 -182q171 0 327 55l15 -264q-183 -47 -359 -47 q-362 0 -473 249q-114 -250 -427 -250q-146 0 -242.5 83.5t-96.5 236.5zM376 286q0 -58 40.5 -95.5t110.5 -37.5q54 0 100 24t82 84t43 150q-126 7 -156 7q-107 0 -163.5 -28t-56.5 -104zM1031 601h381q-1 96 -52.5 141.5t-137.5 45.5q-81 0 -134 -51t-57 -136z" />
<glyph unicode="&#xe7;" horiz-adv-x="1071" d="M72 492q0 245 155.5 383t425.5 138q183 0 336 -58l-15 -263q-68 28 -159.5 45.5t-156.5 17.5q-139 0 -205.5 -68.5t-66.5 -194.5q0 -125 67 -193.5t207 -68.5q66 0 156 16t158 42l15 -262q-130 -50 -307 -55l-80 -105l2 -2q46 14 84 14q77 0 130 -42t53 -119 q0 -60 -41.5 -102.5t-99.5 -60.5t-123 -18q-102 0 -212 47l14 93q104 -38 179 -38q59 0 96.5 21.5t37.5 59.5q0 39 -37.5 59.5t-85.5 20.5q-40 0 -107 -18l-20 39l102 153q-234 20 -368 157t-134 362z" />
<glyph unicode="&#xe8;" horiz-adv-x="1132" d="M72 486q0 251 137 389t378 138q227 0 350 -136t123 -391v-78h-673q11 -182 291 -182q172 0 328 55l15 -264q-183 -47 -360 -47q-133 0 -237.5 28t-185 87.5t-123.5 160.5t-43 240zM203 1423l279 27l226 -334h-235zM378 601h384q-1 96 -52.5 141.5t-137.5 45.5 q-84 0 -137 -51t-57 -136z" />
<glyph unicode="&#xe9;" horiz-adv-x="1132" d="M72 486q0 251 137 389t378 138q227 0 350 -136t123 -391v-78h-673q11 -182 291 -182q172 0 328 55l15 -264q-183 -47 -360 -47q-133 0 -237.5 28t-185 87.5t-123.5 160.5t-43 240zM378 601h384q-1 96 -52.5 141.5t-137.5 45.5q-84 0 -137 -51t-57 -136zM483 1116l225 334 l277 -27l-268 -307h-234z" />
<glyph unicode="&#xea;" horiz-adv-x="1132" d="M72 486q0 251 137 389t378 138q227 0 350 -136t123 -391v-78h-673q11 -182 291 -182q172 0 328 55l15 -264q-183 -47 -360 -47q-133 0 -237.5 28t-185 87.5t-123.5 160.5t-43 240zM228 1116l228 307h281l228 -307h-236l-130 164h-4l-133 -164h-234zM378 601h384 q-1 96 -52.5 141.5t-137.5 45.5q-84 0 -137 -51t-57 -136z" />
<glyph unicode="&#xeb;" horiz-adv-x="1132" d="M72 486q0 251 137 389t378 138q227 0 350 -136t123 -391v-78h-673q11 -182 291 -182q172 0 328 55l15 -264q-183 -47 -360 -47q-133 0 -237.5 28t-185 87.5t-123.5 160.5t-43 240zM199 1252q0 64 45.5 109.5t109.5 45.5t110.5 -45.5t46.5 -109.5t-46.5 -110.5 t-110.5 -46.5t-109.5 46.5t-45.5 110.5zM378 601h384q-1 96 -52.5 141.5t-137.5 45.5q-84 0 -137 -51t-57 -136zM683 1252q0 64 45.5 109.5t109.5 45.5t111 -46t47 -109q0 -64 -47 -110.5t-111 -46.5t-109.5 46.5t-45.5 110.5z" />
<glyph unicode="&#xec;" d="M-127 1423l279 27l225 -334h-234zM114 0v983h304v-983h-304z" />
<glyph unicode="&#xed;" d="M114 0v983h304v-983h-304zM152 1116l226 334l277 -27l-268 -307h-235z" />
<glyph unicode="&#xee;" d="M-102 1116l228 307h281l227 -307h-235l-131 164h-4l-132 -164h-234zM114 0v983h304v-983h-304z" />
<glyph unicode="&#xef;" d="M-131 1252q0 64 45.5 109.5t109.5 45.5t110.5 -45.5t46.5 -109.5t-46.5 -110.5t-110.5 -46.5t-109.5 46.5t-45.5 110.5zM114 0v983h304v-983h-304zM353 1252q0 64 45.5 109.5t109.5 45.5t110.5 -45.5t46.5 -109.5t-46.5 -110.5t-110.5 -46.5t-109.5 46.5t-45.5 110.5z " />
<glyph unicode="&#xf0;" horiz-adv-x="1232" d="M72 513q0 212 125.5 350t329.5 138q113 0 203 -39q-61 122 -148 247l-186 -100l-67 107l177 98q-106 133 -210 222l369 10q51 -51 90 -98l181 99l75 -102l-179 -97q143 -199 236 -438.5t93 -418.5q0 -146 -62.5 -264.5t-187 -190.5t-290.5 -72q-249 0 -399 149.5 t-150 399.5zM387 497q0 -113 60 -185.5t174 -72.5t174 72.5t60 186.5q0 113 -60.5 185.5t-174.5 72.5t-173.5 -72.5t-59.5 -186.5z" />
<glyph unicode="&#xf1;" horiz-adv-x="1204" d="M104 0v983h284l4 -155h5q152 185 352 185q180 0 266 -106t86 -320v-587h-305v544q0 94 -40 152.5t-130 58.5q-101 0 -159.5 -78t-58.5 -210v-467h-304zM258 1120q0 63 26.5 129.5t79.5 115.5t118 49q37 0 74 -18.5t61.5 -40t52.5 -40t50 -18.5q35 0 60 39.5t29 77.5h137 q0 -68 -24 -134t-73.5 -113t-112.5 -47q-38 0 -75.5 18t-62.5 40t-54.5 40t-53.5 18q-38 0 -65 -37.5t-32 -78.5h-135z" />
<glyph unicode="&#xf2;" horiz-adv-x="1230" d="M72 492q0 147 59 263t183.5 187t299.5 71q131 0 236 -40.5t171.5 -112t101.5 -165.5t35 -203t-35 -203t-101.5 -165.5t-171.5 -112.5t-236 -41q-132 0 -236.5 41t-170.5 112.5t-100.5 165.5t-34.5 203zM222 1423l279 27l225 -334h-234zM386 492q0 -116 56 -189t172 -73 t172 73t56 189t-56 189.5t-172 73.5t-172 -73.5t-56 -189.5z" />
<glyph unicode="&#xf3;" horiz-adv-x="1230" d="M72 492q0 147 59 263t183.5 187t299.5 71q131 0 236 -40.5t171.5 -112t101.5 -165.5t35 -203t-35 -203t-101.5 -165.5t-171.5 -112.5t-236 -41q-132 0 -236.5 41t-170.5 112.5t-100.5 165.5t-34.5 203zM386 492q0 -116 56 -189t172 -73t172 73t56 189t-56 189.5 t-172 73.5t-172 -73.5t-56 -189.5zM501 1116l226 334l277 -27l-268 -307h-235z" />
<glyph unicode="&#xf4;" horiz-adv-x="1230" d="M72 492q0 147 59 263t183.5 187t299.5 71q131 0 236 -40.5t171.5 -112t101.5 -165.5t35 -203t-35 -203t-101.5 -165.5t-171.5 -112.5t-236 -41q-132 0 -236.5 41t-170.5 112.5t-100.5 165.5t-34.5 203zM247 1116l228 307h281l227 -307h-235l-131 164h-4l-132 -164h-234z M386 492q0 -116 56 -189t172 -73t172 73t56 189t-56 189.5t-172 73.5t-172 -73.5t-56 -189.5z" />
<glyph unicode="&#xf5;" horiz-adv-x="1230" d="M72 492q0 147 59 263t183.5 187t299.5 71q131 0 236 -40.5t171.5 -112t101.5 -165.5t35 -203t-35 -203t-101.5 -165.5t-171.5 -112.5t-236 -41q-132 0 -236.5 41t-170.5 112.5t-100.5 165.5t-34.5 203zM271 1120q0 63 26.5 129.5t79.5 115.5t118 49q37 0 74.5 -18.5 t62 -40t52.5 -40t50 -18.5q35 0 59.5 39.5t28.5 77.5h137q0 -68 -24 -134t-73.5 -113t-112.5 -47q-38 0 -75.5 18t-62.5 40t-54.5 40t-53.5 18q-38 0 -64.5 -37.5t-31.5 -78.5h-136zM386 492q0 -116 56 -189t172 -73t172 73t56 189t-56 189.5t-172 73.5t-172 -73.5 t-56 -189.5z" />
<glyph unicode="&#xf6;" horiz-adv-x="1230" d="M72 492q0 147 59 263t183.5 187t299.5 71q131 0 236 -40.5t171.5 -112t101.5 -165.5t35 -203t-35 -203t-101.5 -165.5t-171.5 -112.5t-236 -41q-132 0 -236.5 41t-170.5 112.5t-100.5 165.5t-34.5 203zM218 1252q0 64 45.5 109.5t109.5 45.5t110.5 -45.5t46.5 -109.5 t-46.5 -110.5t-110.5 -46.5t-109.5 46.5t-45.5 110.5zM386 492q0 -116 56 -189t172 -73t172 73t56 189t-56 189.5t-172 73.5t-172 -73.5t-56 -189.5zM702 1252q0 64 45.5 109.5t109.5 45.5t110.5 -45.5t46.5 -109.5t-46.5 -110.5t-110.5 -46.5t-109.5 46.5t-45.5 110.5z" />
<glyph unicode="&#xf7;" horiz-adv-x="1396" d="M164 565v209h1069v-209h-1069zM561 294q0 59 40 100t99 41q57 0 98.5 -41.5t41.5 -99.5q0 -57 -41.5 -99.5t-98.5 -42.5q-58 0 -98.5 42t-40.5 100zM561 1044q0 59 40 100t99 41q57 0 98.5 -41.5t41.5 -99.5q0 -57 -41.5 -99.5t-98.5 -42.5q-58 0 -98.5 42t-40.5 100z " />
<glyph unicode="&#xf8;" horiz-adv-x="1230" d="M71 15l121 125q-120 140 -120 352q0 147 59 263t183.5 187t299.5 71q199 0 335 -92l125 130l85 -82l-122 -127q121 -141 121 -351q0 -109 -35 -203t-101.5 -165.5t-171.5 -112t-236 -40.5q-196 0 -332 91l-124 -129zM386 491q0 -72 22 -128l342 353q-53 39 -136 39 q-115 0 -171.5 -74t-56.5 -190zM481 267q55 -37 133 -37q116 0 172 72.5t56 188.5q0 71 -21 128z" />
<glyph unicode="&#xf9;" horiz-adv-x="1181" d="M104 396v587h304v-542q0 -105 38.5 -159t133.5 -54q101 0 152.5 68t51.5 195v492h303v-983h-292l-3 135h-4q-131 -165 -321 -165q-194 0 -278.5 108.5t-84.5 317.5zM197 1423l279 27l226 -334h-234z" />
<glyph unicode="&#xfa;" horiz-adv-x="1181" d="M104 396v587h304v-542q0 -105 38.5 -159t133.5 -54q101 0 152.5 68t51.5 195v492h303v-983h-292l-3 135h-4q-131 -165 -321 -165q-194 0 -278.5 108.5t-84.5 317.5zM477 1116l225 334l277 -27l-268 -307h-234z" />
<glyph unicode="&#xfb;" horiz-adv-x="1181" d="M104 396v587h304v-542q0 -105 38.5 -159t133.5 -54q101 0 152.5 68t51.5 195v492h303v-983h-292l-3 135h-4q-131 -165 -321 -165q-194 0 -278.5 108.5t-84.5 317.5zM222 1116l228 307h281l228 -307h-236l-130 164h-4l-132 -164h-235z" />
<glyph unicode="&#xfc;" horiz-adv-x="1181" d="M104 396v587h304v-542q0 -105 38.5 -159t133.5 -54q101 0 152.5 68t51.5 195v492h303v-983h-292l-3 135h-4q-131 -165 -321 -165q-194 0 -278.5 108.5t-84.5 317.5zM193 1252q0 64 45.5 109.5t109.5 45.5t110.5 -45.5t46.5 -109.5t-46.5 -110.5t-110.5 -46.5t-109.5 46.5 t-45.5 110.5zM677 1252q0 64 46 109.5t110 45.5t110.5 -45.5t46.5 -109.5t-46.5 -110.5t-110.5 -46.5t-110 46.5t-46 110.5z" />
<glyph unicode="&#xfd;" horiz-adv-x="1124" d="M11 983h334l227 -684l207 684h334l-398 -983l-174 -493h-336l221 486zM448 1116l225 334l277 -27l-268 -307h-234z" />
<glyph unicode="&#xfe;" horiz-adv-x="1282" d="M104 -492v2027h304v-552l-3 -133h7q127 163 322 163q115 0 207 -41.5t150 -113.5t88.5 -165.5t30.5 -200.5q0 -144 -52.5 -260.5t-162 -189t-259.5 -72.5q-194 0 -324 165h-7l3 -135v-492h-304zM400 492q0 -119 66 -190.5t182 -71.5t182 71.5t66 190.5t-66 191t-182 72 q-115 0 -181.5 -72t-66.5 -191z" />
<glyph unicode="&#xff;" horiz-adv-x="1124" d="M11 983h334l227 -684l207 684h334l-398 -983l-174 -493h-336l221 486zM164 1252q0 64 45.5 109.5t109.5 45.5t110.5 -45.5t46.5 -109.5t-46.5 -110.5t-110.5 -46.5t-109.5 46.5t-45.5 110.5zM648 1252q0 64 45.5 109.5t109.5 45.5t110.5 -45.5t46.5 -109.5t-46.5 -110.5 t-110.5 -46.5t-109.5 46.5t-45.5 110.5z" />
<glyph unicode="&#x152;" horiz-adv-x="2304" d="M153 741q0 113 31.5 220t97.5 202.5t159 167t225.5 113t287.5 41.5h1195v-280h-706v-320h646l-4 -280h-642v-325h738v-280h-1227q-155 0 -287.5 41.5t-225.5 112.5t-159 165.5t-97.5 201.5t-31.5 220zM473 741q0 -85 31 -162.5t89 -140t151.5 -100t209.5 -37.5h176v885 h-176q-116 0 -209.5 -38t-151.5 -101.5t-89 -142t-31 -163.5z" />
<glyph unicode="&#x153;" horiz-adv-x="1884" d="M72 492q0 110 33.5 203.5t97.5 165t167.5 112t234.5 40.5q237 0 371 -157q128 167 377 161q99 -3 180 -35t144.5 -94t99 -164.5t35.5 -237.5v-78h-675q14 -93 93 -137.5t200 -44.5q168 0 324 55l13 -264q-180 -47 -354 -47q-297 0 -436 158q-131 -158 -372 -158 q-131 0 -234.5 41t-167.5 112.5t-97.5 165t-33.5 203.5zM386 492q0 -122 54.5 -192t164.5 -70q105 0 160 70.5t57 191.5q0 119 -56 191t-161 72q-110 0 -164.5 -70.5t-54.5 -192.5zM1130 601h380q-1 96 -52 141.5t-135 45.5t-136 -50.5t-57 -136.5z" />
<glyph unicode="&#x178;" horiz-adv-x="1468" d="M32 1485h356l346 -724l347 724h356l-547 -1020v-465h-313v465zM336 1747q0 64 45.5 109t109.5 45t110.5 -45.5t46.5 -108.5q0 -65 -46.5 -110.5t-110.5 -45.5t-109.5 45.5t-45.5 110.5zM820 1747q0 64 45.5 109t109.5 45t110.5 -45.5t46.5 -108.5q0 -65 -46.5 -110.5 t-110.5 -45.5t-109.5 45.5t-45.5 110.5z" />
<glyph unicode="&#x2c6;" d="M-107 1116l228 307h280l228 -307h-235l-131 164h-4l-132 -164h-234z" />
<glyph unicode="&#x2dc;" d="M-79 1120q0 63 26.5 129.5t79.5 115.5t118 49q37 0 74 -18.5t61.5 -40t52.5 -40t50 -18.5q35 0 60 39.5t29 77.5h137q0 -68 -24 -134t-73.5 -113t-112.5 -47q-38 0 -75.5 18t-62.5 40t-54.5 40t-53.5 18q-38 0 -65 -37.5t-32 -78.5h-135z" />
<glyph unicode="&#x2000;" horiz-adv-x="1020" />
<glyph unicode="&#x2001;" horiz-adv-x="2040" />
<glyph unicode="&#x2002;" horiz-adv-x="1020" />
<glyph unicode="&#x2003;" horiz-adv-x="2040" />
<glyph unicode="&#x2004;" horiz-adv-x="680" />
<glyph unicode="&#x2005;" horiz-adv-x="510" />
<glyph unicode="&#x2006;" horiz-adv-x="340" />
<glyph unicode="&#x2007;" horiz-adv-x="340" />
<glyph unicode="&#x2008;" horiz-adv-x="255" />
<glyph unicode="&#x2009;" horiz-adv-x="408" />
<glyph unicode="&#x200a;" horiz-adv-x="113" />
<glyph unicode="&#x2010;" horiz-adv-x="763" d="M92 389v262h580v-262h-580z" />
<glyph unicode="&#x2011;" horiz-adv-x="763" d="M92 389v262h580v-262h-580z" />
<glyph unicode="&#x2012;" horiz-adv-x="763" d="M92 389v262h580v-262h-580z" />
<glyph unicode="&#x2013;" horiz-adv-x="1245" d="M92 389v262h1060v-262h-1060z" />
<glyph unicode="&#x2014;" horiz-adv-x="2140" d="M92 389v262h1956v-262h-1956z" />
<glyph unicode="&#x2018;" horiz-adv-x="634" d="M124 878q51 294 203 626l226 -17q-81 -250 -127 -609h-302z" />
<glyph unicode="&#x2019;" horiz-adv-x="634" d="M83 876q83 263 127 609h302q-53 -296 -205 -624z" />
<glyph unicode="&#x201a;" horiz-adv-x="606" d="M62 -279q82 255 127 608h302q-54 -301 -203 -623z" />
<glyph unicode="&#x201c;" horiz-adv-x="1110" d="M124 878q52 292 205 626l224 -17q-84 -267 -126 -609h-303zM597 878q54 297 205 626l226 -17q-85 -266 -129 -609h-302z" />
<glyph unicode="&#x201d;" horiz-adv-x="1110" d="M83 876q85 266 129 609h302q-54 -297 -205 -626zM558 876q84 267 126 609h303q-51 -289 -206 -626z" />
<glyph unicode="&#x201e;" horiz-adv-x="1081" d="M62 -279q85 266 129 609l302 -1q-54 -296 -205 -625zM537 -279q84 267 126 608l303 1q-51 -289 -206 -626z" />
<glyph unicode="&#x2022;" horiz-adv-x="1073" d="M184 741q0 148 103.5 251.5t249.5 103.5t249 -103.5t103 -251.5q0 -146 -103 -249t-249 -103t-249.5 103t-103.5 249z" />
<glyph unicode="&#x2026;" horiz-adv-x="1863" d="M124 158q0 81 51 135.5t135 54.5q85 0 136 -54.5t51 -135.5q0 -80 -51 -134.5t-136 -54.5q-84 0 -135 54.5t-51 134.5zM744 158q0 81 51.5 135.5t135.5 54.5q85 0 136.5 -54.5t51.5 -135.5q0 -80 -51.5 -134.5t-136.5 -54.5q-84 0 -135.5 54.5t-51.5 134.5zM1367 158 q0 81 50.5 135.5t135.5 54.5q84 0 135.5 -54.5t51.5 -135.5q0 -80 -51.5 -134.5t-135.5 -54.5t-135 54.5t-51 134.5z" />
<glyph unicode="&#x202f;" horiz-adv-x="408" />
<glyph unicode="&#x2039;" horiz-adv-x="823" d="M123 492l338 483l198 -128l-252 -355l252 -355l-198 -128z" />
<glyph unicode="&#x203a;" horiz-adv-x="823" d="M164 137l252 355l-252 355l197 128l339 -483l-339 -483z" />
<glyph unicode="&#x205f;" horiz-adv-x="510" />
<glyph unicode="&#x20ac;" horiz-adv-x="1441" d="M61 504l17 175h123q-2 21 -2 62q0 30 3 63h-141l17 175h144q58 263 243 394.5t462 131.5q180 0 412 -79l-17 -279q-211 78 -395 78q-299 0 -390 -246h685l-35 -175h-681q-3 -33 -3 -63q0 -33 3 -62h652l-37 -175h-583q90 -245 389 -245q181 0 395 79l17 -279 q-232 -79 -412 -79q-278 0 -463 130.5t-243 393.5h-160z" />
<glyph unicode="&#x2122;" horiz-adv-x="2117" d="M164 1316v169h708v-169h-261v-722h-186v722h-261zM958 594v891h209l287 -508l290 508h209v-891h-185v592h-4l-261 -460h-95l-262 460h-2v-592h-186z" />
<glyph unicode="&#x25fc;" horiz-adv-x="983" d="M0 0v983h983v-983h-983z" />
<glyph unicode="&#xfb01;" horiz-adv-x="1310" d="M41 739l13 244h180v96q0 434 506 434q238 0 485 -81l-21 -262q-68 35 -190.5 65.5t-228.5 30.5q-55 0 -97.5 -9t-77.5 -29.5t-54 -59.5t-19 -94v-91h183v-244h-183v-739h-303v739h-193zM893 0v983h306v-983h-306z" />
<glyph unicode="&#xfb02;" horiz-adv-x="1331" d="M41 739l13 244h180v111q0 103 16 176t54.5 130t108.5 85t173 28q78 0 200 -18v-251q-48 13 -107 13q-79 0 -110.5 -43t-31.5 -140v-91h189v-244h-189v-739h-303v739h-193zM903 0v1526h304v-1526h-304z" />
<glyph unicode="&#xfb03;" horiz-adv-x="2091" d="M41 739l13 244h180v111q0 103 16 176t55 130t109 85t173 28q93 0 214 -18l-15 -251q-48 13 -107 13q-80 0 -111 -41t-31 -142v-91h201l-13 -244h-188v-739h-303v739h-193zM820 739l13 244h179v96q0 98 27 174t72.5 124.5t111 79.5t137 43.5t155.5 12.5q255 0 489 -81 l-22 -262q-68 35 -190.5 65.5t-229.5 30.5q-114 0 -180 -43t-66 -149v-91h183v-244h-183v-739h-304v739h-192zM1672 0v983h305v-983h-305z" />
<glyph unicode="&#xfb04;" horiz-adv-x="2111" d="M41 739l13 244h180v111q0 103 16 176t55 130t109 85t173 28q93 0 214 -18l-15 -251q-48 13 -107 13q-79 0 -110.5 -43t-31.5 -140v-91h201l-13 -244h-188v-739h-303v739h-193zM821 739l14 244h179v111q0 103 16 176t55 130t109 85t173 28q77 0 199 -18v-251 q-48 13 -107 13q-79 0 -110.5 -43t-31.5 -140v-91h187v-244h-187v-739h-303v739h-193zM1684 0v1526h304v-1526h-304z" />
</font>
</defs>
</svg>
